<?xml version="1.0" standalone="no"?>
<svg xmlns="http://www.w3.org/2000/svg" xmlns:xlink="http://www.w3.org/1999/xlink" style="isolation:isolate;" viewBox="0 0 128 128" width="128" height="128">
  <defs>
    <clipPath id="_clipPath_by0KrCcyrLMxBEZXcwFwcis5QsgYS4nh">
      <rect width="128" height="128"/>
    </clipPath>
  </defs>
  <g clip-path="url(#_clipPath_by0KrCcyrLMxBEZXcwFwcis5QsgYS4nh)">

    <path d=" M -12.053 78.793 L -12.053 76.005 C -12.053 74.345 -13.401 72.998 -15.06 72.998 L -16.94 72.998 C -18.599 72.998 -19.947 74.345 -19.947 76.005 L -19.947 78.793 C -23.234 79.374 -26.277 80.668 -28.909 82.51 L -30.884 80.535 C -32.057 79.361 -33.963 79.361 -35.136 80.535 L -36.465 81.864 C -37.639 83.037 -37.639 84.943 -36.465 86.116 L -34.49 88.091 C -36.332 90.723 -37.626 93.766 -38.207 97.053 L -40.995 97.053 C -42.655 97.053 -44.002 98.401 -44.002 100.06 L -44.002 101.94 C -44.002 103.599 -42.655 104.947 -40.995 104.947 L -38.207 104.947 C -37.626 108.234 -36.332 111.277 -34.49 113.909 L -36.465 115.884 C -37.639 117.057 -37.639 118.963 -36.465 120.136 L -35.136 121.465 C -33.963 122.639 -32.057 122.639 -30.884 121.465 L -28.909 119.49 C -26.277 121.332 -23.234 122.626 -19.947 123.207 L -19.947 125.995 C -19.947 127.655 -18.599 129.002 -16.94 129.002 L -15.06 129.002 C -13.401 129.002 -12.053 127.655 -12.053 125.995 L -12.053 123.207 C -8.766 122.626 -5.723 121.332 -3.091 119.49 L -1.116 121.465 C 0.057 122.639 1.963 122.639 3.136 121.465 L 4.465 120.136 C 5.639 118.963 5.639 117.057 4.465 115.884 L 2.49 113.909 C 4.332 111.277 5.626 108.234 6.207 104.947 L 8.995 104.947 C 10.655 104.947 12.002 103.599 12.002 101.94 L 12.002 100.06 C 12.002 98.401 10.655 97.053 8.995 97.053 L 6.207 97.053 C 5.626 93.766 4.332 90.723 2.49 88.091 L 4.465 86.116 C 5.639 84.943 5.639 83.037 4.465 81.864 L 3.136 80.535 C 1.963 79.361 0.057 79.361 -1.116 80.535 L -3.091 82.51 C -5.723 80.668 -8.766 79.374 -12.053 78.793 Z  M -32.82 101 C -32.82 91.717 -25.283 84.18 -16 84.18 C -6.717 84.18 0.82 91.717 0.82 101 C 0.82 110.283 -6.717 117.82 -16 117.82 C -25.283 117.82 -32.82 110.283 -32.82 101 Z " fill-rule="evenodd" fill="rgba(1,1,1,.1)"> <animateTransform type="rotate" attributeName="transform" attributeType="XML" from="0 -16 101" to="360 -16 101"  begin="0s" dur="8s" repeatCount="indefinite"/>
    </path>

    <path d=" M 115.947 78.793 L 115.947 76.005 C 115.947 74.345 114.599 72.998 112.94 72.998 L 111.06 72.998 C 109.401 72.998 108.053 74.345 108.053 76.005 L 108.053 78.793 C 104.766 79.374 101.723 80.668 99.091 82.51 L 97.116 80.535 C 95.943 79.361 94.037 79.361 92.864 80.535 L 91.535 81.864 C 90.361 83.037 90.361 84.943 91.535 86.116 L 93.51 88.091 C 91.668 90.723 90.374 93.766 89.793 97.053 L 87.005 97.053 C 85.345 97.053 83.998 98.401 83.998 100.06 L 83.998 101.94 C 83.998 103.599 85.345 104.947 87.005 104.947 L 89.793 104.947 C 90.374 108.234 91.668 111.277 93.51 113.909 L 91.535 115.884 C 90.361 117.057 90.361 118.963 91.535 120.136 L 92.864 121.465 C 94.037 122.639 95.943 122.639 97.116 121.465 L 99.091 119.49 C 101.723 121.332 104.766 122.626 108.053 123.207 L 108.053 125.995 C 108.053 127.655 109.401 129.002 111.06 129.002 L 112.94 129.002 C 114.599 129.002 115.947 127.655 115.947 125.995 L 115.947 123.207 C 119.234 122.626 122.277 121.332 124.909 119.49 L 126.884 121.465 C 128.057 122.639 129.963 122.639 131.136 121.465 L 132.465 120.136 C 133.639 118.963 133.639 117.057 132.465 115.884 L 130.49 113.909 C 132.332 111.277 133.626 108.234 134.207 104.947 L 136.995 104.947 C 138.655 104.947 140.002 103.599 140.002 101.94 L 140.002 100.06 C 140.002 98.401 138.655 97.053 136.995 97.053 L 134.207 97.053 C 133.626 93.766 132.332 90.723 130.49 88.091 L 132.465 86.116 C 133.639 84.943 133.639 83.037 132.465 81.864 L 131.136 80.535 C 129.963 79.361 128.057 79.361 126.884 80.535 L 124.909 82.51 C 122.277 80.668 119.234 79.374 115.947 78.793 Z  M 95.18 101 C 95.18 91.717 102.717 84.18 112 84.18 C 121.283 84.18 128.82 91.717 128.82 101 C 128.82 110.283 121.283 117.82 112 117.82 C 102.717 117.82 95.18 110.283 95.18 101 Z " fill-rule="evenodd" fill="rgba(1,1,1,.1)">
        <animateTransform type="rotate" attributeName="transform" attributeType="XML" from="0 112 101" to="360 112 101"  begin="0s" dur="8s" repeatCount="indefinite"/>
    </path>

    <path d=" M 51.654 17.068 C 51.654 10.668 56.85 5.472 63.25 5.472 C 69.65 5.472 74.846 10.668 74.846 17.068 C 74.846 23.468 69.65 28.664 63.25 28.664 C 56.85 28.664 51.654 23.468 51.654 17.068 Z  M 68.404 -11.932 L 68.404 -15.573 C 68.404 -17.74 66.644 -19.5 64.477 -19.5 L 62.023 -19.5 C 59.856 -19.5 58.096 -17.74 58.096 -15.573 L 58.096 -11.932 C 53.803 -11.173 49.83 -9.483 46.393 -7.078 L 43.813 -9.657 C 42.281 -11.19 39.793 -11.19 38.26 -9.657 L 36.525 -7.922 C 34.992 -6.389 34.992 -3.901 36.525 -2.368 L 39.104 0.211 C 36.699 3.648 35.009 7.621 34.25 11.914 L 30.609 11.914 C 28.442 11.914 26.682 13.674 26.682 15.841 L 26.682 18.295 C 26.682 20.462 28.442 22.222 30.609 22.222 L 34.25 22.222 C 35.009 26.515 36.699 30.488 39.104 33.925 L 36.525 36.505 C 34.992 38.037 34.992 40.525 36.525 42.058 L 38.26 43.793 C 39.793 45.326 42.281 45.326 43.813 43.793 L 46.393 41.214 C 49.83 43.619 53.803 45.309 58.096 46.068 L 58.096 49.709 C 58.096 51.877 59.856 53.636 62.023 53.636 L 64.477 53.636 C 66.644 53.636 68.404 51.877 68.404 49.709 L 68.404 46.068 C 72.697 45.309 76.67 43.619 80.107 41.214 L 82.687 43.793 C 84.219 45.326 86.707 45.326 88.24 43.793 L 89.975 42.058 C 91.508 40.525 91.508 38.037 89.975 36.505 L 87.396 33.925 C 89.801 30.488 91.491 26.515 92.25 22.222 L 95.891 22.222 C 98.058 22.222 99.818 20.462 99.818 18.295 L 99.818 15.841 C 99.818 13.674 98.058 11.914 95.891 11.914 L 92.25 11.914 C 91.491 7.621 89.801 3.648 87.396 0.211 L 89.975 -2.368 C 91.508 -3.901 91.508 -6.389 89.975 -7.922 L 88.24 -9.657 C 86.707 -11.19 84.219 -11.19 82.687 -9.657 L 80.107 -7.078 C 76.67 -9.483 72.697 -11.173 68.404 -11.932 Z  M 41.285 17.068 C 41.285 4.945 51.127 -4.897 63.25 -4.897 C 75.373 -4.897 85.215 4.945 85.215 17.068 C 85.215 29.191 75.373 39.033 63.25 39.033 C 51.127 39.033 41.285 29.191 41.285 17.068 Z " fill-rule="evenodd" fill="rgba(1,1,1,.1)">
        <animateTransform type="rotate" attributeName="transform" attributeType="XML" from="0 63.25 17.07" to="360 63.25 17.07"  begin="0s" dur="8s" repeatCount="indefinite"/>
    </path>
    <path d=" M 51.654 145.068 C 51.654 138.668 56.85 133.472 63.25 133.472 C 69.65 133.472 74.846 138.668 74.846 145.068 C 74.846 151.468 69.65 156.664 63.25 156.664 C 56.85 156.664 51.654 151.468 51.654 145.068 Z  M 68.404 116.068 L 68.404 112.427 C 68.404 110.26 66.644 108.5 64.477 108.5 L 62.023 108.5 C 59.856 108.5 58.096 110.26 58.096 112.427 L 58.096 116.068 C 53.803 116.827 49.83 118.517 46.393 120.922 L 43.813 118.343 C 42.281 116.81 39.793 116.81 38.26 118.343 L 36.525 120.078 C 34.992 121.611 34.992 124.099 36.525 125.632 L 39.104 128.211 C 36.699 131.648 35.009 135.621 34.25 139.914 L 30.609 139.914 C 28.442 139.914 26.682 141.674 26.682 143.841 L 26.682 146.295 C 26.682 148.462 28.442 150.222 30.609 150.222 L 34.25 150.222 C 35.009 154.515 36.699 158.488 39.104 161.925 L 36.525 164.505 C 34.992 166.037 34.992 168.525 36.525 170.058 L 38.26 171.793 C 39.793 173.326 42.281 173.326 43.813 171.793 L 46.393 169.214 C 49.83 171.619 53.803 173.309 58.096 174.068 L 58.096 177.709 C 58.096 179.877 59.856 181.636 62.023 181.636 L 64.477 181.636 C 66.644 181.636 68.404 179.877 68.404 177.709 L 68.404 174.068 C 72.697 173.309 76.67 171.619 80.107 169.214 L 82.687 171.793 C 84.219 173.326 86.707 173.326 88.24 171.793 L 89.975 170.058 C 91.508 168.525 91.508 166.037 89.975 164.505 L 87.396 161.925 C 89.801 158.488 91.491 154.515 92.25 150.222 L 95.891 150.222 C 98.058 150.222 99.818 148.462 99.818 146.295 L 99.818 143.841 C 99.818 141.674 98.058 139.914 95.891 139.914 L 92.25 139.914 C 91.491 135.621 89.801 131.648 87.396 128.211 L 89.975 125.632 C 91.508 124.099 91.508 121.611 89.975 120.078 L 88.24 118.343 C 86.707 116.81 84.219 116.81 82.687 118.343 L 80.107 120.922 C 76.67 118.517 72.697 116.827 68.404 116.068 Z  M 41.285 145.068 C 41.285 132.945 51.127 123.103 63.25 123.103 C 75.373 123.103 85.215 132.945 85.215 145.068 C 85.215 157.191 75.373 167.033 63.25 167.033 C 51.127 167.033 41.285 157.191 41.285 145.068 Z " fill-rule="evenodd" fill="rgba(1,1,1,.1)">
        <animateTransform type="rotate" attributeName="transform" attributeType="XML" from="0 63.25 145.07" to="360 63.25 145.07"  begin="0s" dur="8s" repeatCount="indefinite"/>
    </path>
    <path d=" M 4.094 10 C 4.094 6.74 6.74 4.094 10 4.094 C 13.26 4.094 15.906 6.74 15.906 10 C 15.906 13.26 13.26 15.906 10 15.906 C 6.74 15.906 4.094 13.26 4.094 10 Z  M 12.625 -4.771 L 12.625 -6.625 C 12.625 -7.729 11.729 -8.625 10.625 -8.625 L 9.375 -8.625 C 8.271 -8.625 7.375 -7.729 7.375 -6.625 L 7.375 -4.771 C 5.188 -4.384 3.165 -3.523 1.414 -2.298 L 0.101 -3.612 C -0.68 -4.392 -1.947 -4.392 -2.728 -3.612 L -3.612 -2.728 C -4.392 -1.947 -4.392 -0.68 -3.612 0.101 L -2.298 1.414 C -3.523 3.165 -4.384 5.188 -4.771 7.375 L -6.625 7.375 C -7.729 7.375 -8.625 8.271 -8.625 9.375 L -8.625 10.625 C -8.625 11.729 -7.729 12.625 -6.625 12.625 L -4.771 12.625 C -4.384 14.812 -3.523 16.835 -2.298 18.586 L -3.612 19.899 C -4.392 20.68 -4.392 21.947 -3.612 22.728 L -2.728 23.612 C -1.947 24.392 -0.68 24.392 0.101 23.612 L 1.414 22.298 C 3.165 23.523 5.188 24.384 7.375 24.771 L 7.375 26.625 C 7.375 27.729 8.271 28.625 9.375 28.625 L 10.625 28.625 C 11.729 28.625 12.625 27.729 12.625 26.625 L 12.625 24.771 C 14.812 24.384 16.835 23.523 18.586 22.298 L 19.899 23.612 C 20.68 24.392 21.947 24.392 22.728 23.612 L 23.612 22.728 C 24.392 21.947 24.392 20.68 23.612 19.899 L 22.298 18.586 C 23.523 16.835 24.384 14.812 24.771 12.625 L 26.625 12.625 C 27.729 12.625 28.625 11.729 28.625 10.625 L 28.625 9.375 C 28.625 8.271 27.729 7.375 26.625 7.375 L 24.771 7.375 C 24.384 5.188 23.523 3.165 22.298 1.414 L 23.612 0.101 C 24.392 -0.68 24.392 -1.947 23.612 -2.728 L 22.728 -3.612 C 21.947 -4.392 20.68 -4.392 19.899 -3.612 L 18.586 -2.298 C 16.835 -3.523 14.812 -4.384 12.625 -4.771 Z  M -1.187 10 C -1.187 3.825 3.825 -1.187 10 -1.187 C 16.175 -1.187 21.188 3.825 21.188 10 C 21.188 16.175 16.175 21.188 10 21.188 C 3.825 21.188 -1.187 16.175 -1.187 10 Z " fill-rule="evenodd" fill="rgba(1,1,1,.2)">
        <animateTransform type="rotate" attributeName="transform" attributeType="XML" from="360 10.005 10.005" to="0 10.005 10.005"  begin="0s" dur="4s" repeatCount="indefinite"/>
    </path>
    <path d=" M 132.094 10 C 132.094 6.74 134.74 4.094 138 4.094 C 141.26 4.094 143.906 6.74 143.906 10 C 143.906 13.26 141.26 15.906 138 15.906 C 134.74 15.906 132.094 13.26 132.094 10 Z  M 140.625 -4.771 L 140.625 -6.625 C 140.625 -7.729 139.729 -8.625 138.625 -8.625 L 137.375 -8.625 C 136.271 -8.625 135.375 -7.729 135.375 -6.625 L 135.375 -4.771 C 133.188 -4.384 131.165 -3.523 129.414 -2.298 L 128.101 -3.612 C 127.32 -4.392 126.053 -4.392 125.272 -3.612 L 124.388 -2.728 C 123.608 -1.947 123.608 -0.68 124.388 0.101 L 125.702 1.414 C 124.477 3.165 123.616 5.188 123.229 7.375 L 121.375 7.375 C 120.271 7.375 119.375 8.271 119.375 9.375 L 119.375 10.625 C 119.375 11.729 120.271 12.625 121.375 12.625 L 123.229 12.625 C 123.616 14.812 124.477 16.835 125.702 18.586 L 124.388 19.899 C 123.608 20.68 123.608 21.947 124.388 22.728 L 125.272 23.612 C 126.053 24.392 127.32 24.392 128.101 23.612 L 129.414 22.298 C 131.165 23.523 133.188 24.384 135.375 24.771 L 135.375 26.625 C 135.375 27.729 136.271 28.625 137.375 28.625 L 138.625 28.625 C 139.729 28.625 140.625 27.729 140.625 26.625 L 140.625 24.771 C 142.812 24.384 144.835 23.523 146.586 22.298 L 147.899 23.612 C 148.68 24.392 149.947 24.392 150.728 23.612 L 151.612 22.728 C 152.392 21.947 152.392 20.68 151.612 19.899 L 150.298 18.586 C 151.523 16.835 152.384 14.812 152.771 12.625 L 154.625 12.625 C 155.729 12.625 156.625 11.729 156.625 10.625 L 156.625 9.375 C 156.625 8.271 155.729 7.375 154.625 7.375 L 152.771 7.375 C 152.384 5.188 151.523 3.165 150.298 1.414 L 151.612 0.101 C 152.392 -0.68 152.392 -1.947 151.612 -2.728 L 150.728 -3.612 C 149.947 -4.392 148.68 -4.392 147.899 -3.612 L 146.586 -2.298 C 144.835 -3.523 142.812 -4.384 140.625 -4.771 Z  M 126.813 10 C 126.813 3.825 131.825 -1.187 138 -1.187 C 144.175 -1.187 149.188 3.825 149.188 10 C 149.188 16.175 144.175 21.188 138 21.188 C 131.825 21.188 126.813 16.175 126.813 10 Z " fill-rule="evenodd" fill="rgba(1,1,1,.2)">
        <animateTransform type="rotate" attributeName="transform" attributeType="XML" from="360 138.005 10.005" to="0 138.005 10.005"  begin="0s" dur="4s" repeatCount="indefinite"/>
    </path>
    <path d=" M 2.929 138 C 2.929 134.74 5.576 132.094 8.836 132.094 C 12.095 132.094 14.742 134.74 14.742 138 C 14.742 141.26 12.095 143.906 8.836 143.906 C 5.576 143.906 2.929 141.26 2.929 138 Z  M 11.461 123.229 L 11.461 121.375 C 11.461 120.271 10.565 119.375 9.461 119.375 L 8.211 119.375 C 7.107 119.375 6.211 120.271 6.211 121.375 L 6.211 123.229 C 4.024 123.616 2.001 124.477 0.25 125.702 L -1.064 124.388 C -1.844 123.608 -3.112 123.608 -3.892 124.388 L -4.776 125.272 C -5.557 126.053 -5.557 127.32 -4.776 128.101 L -3.462 129.414 C -4.687 131.165 -5.548 133.188 -5.935 135.375 L -7.789 135.375 C -8.893 135.375 -9.789 136.271 -9.789 137.375 L -9.789 138.625 C -9.789 139.729 -8.893 140.625 -7.789 140.625 L -5.935 140.625 C -5.548 142.812 -4.687 144.835 -3.462 146.586 L -4.776 147.899 C -5.557 148.68 -5.557 149.947 -4.776 150.728 L -3.892 151.612 C -3.112 152.392 -1.844 152.392 -1.064 151.612 L 0.25 150.298 C 2.001 151.523 4.024 152.384 6.211 152.771 L 6.211 154.625 C 6.211 155.729 7.107 156.625 8.211 156.625 L 9.461 156.625 C 10.565 156.625 11.461 155.729 11.461 154.625 L 11.461 152.771 C 13.647 152.384 15.671 151.523 17.422 150.298 L 18.735 151.612 C 19.516 152.392 20.783 152.392 21.564 151.612 L 22.448 150.728 C 23.228 149.947 23.228 148.68 22.448 147.899 L 21.134 146.586 C 22.359 144.835 23.22 142.812 23.606 140.625 L 25.461 140.625 C 26.565 140.625 27.461 139.729 27.461 138.625 L 27.461 137.375 C 27.461 136.271 26.565 135.375 25.461 135.375 L 23.606 135.375 C 23.22 133.188 22.359 131.165 21.134 129.414 L 22.448 128.101 C 23.228 127.32 23.228 126.053 22.448 125.272 L 21.564 124.388 C 20.783 123.608 19.516 123.608 18.735 124.388 L 17.422 125.702 C 15.671 124.477 13.647 123.616 11.461 123.229 Z  M -2.352 138 C -2.352 131.825 2.661 126.813 8.836 126.813 C 15.01 126.813 20.023 131.825 20.023 138 C 20.023 144.175 15.01 149.188 8.836 149.188 C 2.661 149.188 -2.352 144.175 -2.352 138 Z " fill-rule="evenodd" fill="rgba(1,1,1,.2)">
        <animateTransform type="rotate" attributeName="transform" attributeType="XML" from="360 10.005 138.005" to="0 10.005 138.005"  begin="0s" dur="4s" repeatCount="indefinite"/>
    </path>
    <path d=" M 130.929 138 C 130.929 134.74 133.576 132.094 136.836 132.094 C 140.095 132.094 142.742 134.74 142.742 138 C 142.742 141.26 140.095 143.906 136.836 143.906 C 133.576 143.906 130.929 141.26 130.929 138 Z  M 139.461 123.229 L 139.461 121.375 C 139.461 120.271 138.565 119.375 137.461 119.375 L 136.211 119.375 C 135.107 119.375 134.211 120.271 134.211 121.375 L 134.211 123.229 C 132.024 123.616 130.001 124.477 128.25 125.702 L 126.936 124.388 C 126.156 123.608 124.888 123.608 124.108 124.388 L 123.224 125.272 C 122.443 126.053 122.443 127.32 123.224 128.101 L 124.538 129.414 C 123.313 131.165 122.452 133.188 122.065 135.375 L 120.211 135.375 C 119.107 135.375 118.211 136.271 118.211 137.375 L 118.211 138.625 C 118.211 139.729 119.107 140.625 120.211 140.625 L 122.065 140.625 C 122.452 142.812 123.313 144.835 124.538 146.586 L 123.224 147.899 C 122.443 148.68 122.443 149.947 123.224 150.728 L 124.108 151.612 C 124.888 152.392 126.156 152.392 126.936 151.612 L 128.25 150.298 C 130.001 151.523 132.024 152.384 134.211 152.771 L 134.211 154.625 C 134.211 155.729 135.107 156.625 136.211 156.625 L 137.461 156.625 C 138.565 156.625 139.461 155.729 139.461 154.625 L 139.461 152.771 C 141.647 152.384 143.671 151.523 145.422 150.298 L 146.735 151.612 C 147.516 152.392 148.783 152.392 149.564 151.612 L 150.448 150.728 C 151.228 149.947 151.228 148.68 150.448 147.899 L 149.134 146.586 C 150.359 144.835 151.22 142.812 151.606 140.625 L 153.461 140.625 C 154.565 140.625 155.461 139.729 155.461 138.625 L 155.461 137.375 C 155.461 136.271 154.565 135.375 153.461 135.375 L 151.606 135.375 C 151.22 133.188 150.359 131.165 149.134 129.414 L 150.448 128.101 C 151.228 127.32 151.228 126.053 150.448 125.272 L 149.564 124.388 C 148.783 123.608 147.516 123.608 146.735 124.388 L 145.422 125.702 C 143.671 124.477 141.647 123.616 139.461 123.229 Z  M 125.648 138 C 125.648 131.825 130.661 126.813 136.836 126.813 C 143.01 126.813 148.023 131.825 148.023 138 C 148.023 144.175 143.01 149.188 136.836 149.188 C 130.661 149.188 125.648 144.175 125.648 138 Z " fill-rule="evenodd" fill="rgba(1,1,1,.2)">
        <animateTransform type="rotate" attributeName="transform" attributeType="XML" from="360 138.005 138.005" to="0 138.005 138.005"  begin="0s" dur="4s" repeatCount="indefinite"/>
    </path>
    <path d=" M 14.969 74 C 14.969 70.74 17.615 68.094 20.875 68.094 C 24.135 68.094 26.781 70.74 26.781 74 C 26.781 77.26 24.135 79.906 20.875 79.906 C 17.615 79.906 14.969 77.26 14.969 74 Z  M 23.5 59.229 L 23.5 57.375 C 23.5 56.271 22.604 55.375 21.5 55.375 L 20.25 55.375 C 19.146 55.375 18.25 56.271 18.25 57.375 L 18.25 59.229 C 16.063 59.616 14.04 60.477 12.289 61.702 L 10.976 60.388 C 10.195 59.608 8.928 59.608 8.147 60.388 L 7.263 61.272 C 6.483 62.053 6.483 63.32 7.263 64.101 L 8.577 65.414 C 7.352 67.165 6.491 69.188 6.104 71.375 L 4.25 71.375 C 3.146 71.375 2.25 72.271 2.25 73.375 L 2.25 74.625 C 2.25 75.729 3.146 76.625 4.25 76.625 L 6.104 76.625 C 6.491 78.812 7.352 80.835 8.577 82.586 L 7.263 83.899 C 6.483 84.68 6.483 85.947 7.263 86.728 L 8.147 87.612 C 8.928 88.392 10.195 88.392 10.976 87.612 L 12.289 86.298 C 14.04 87.523 16.063 88.384 18.25 88.771 L 18.25 90.625 C 18.25 91.729 19.146 92.625 20.25 92.625 L 21.5 92.625 C 22.604 92.625 23.5 91.729 23.5 90.625 L 23.5 88.771 C 25.687 88.384 27.71 87.523 29.461 86.298 L 30.774 87.612 C 31.555 88.392 32.822 88.392 33.603 87.612 L 34.487 86.728 C 35.267 85.947 35.267 84.68 34.487 83.899 L 33.173 82.586 C 34.398 80.835 35.259 78.812 35.646 76.625 L 37.5 76.625 C 38.604 76.625 39.5 75.729 39.5 74.625 L 39.5 73.375 C 39.5 72.271 38.604 71.375 37.5 71.375 L 35.646 71.375 C 35.259 69.188 34.398 67.165 33.173 65.414 L 34.487 64.101 C 35.267 63.32 35.267 62.053 34.487 61.272 L 33.603 60.388 C 32.822 59.608 31.555 59.608 30.774 60.388 L 29.461 61.702 C 27.71 60.477 25.687 59.616 23.5 59.229 Z  M 9.688 74 C 9.688 67.825 14.7 62.813 20.875 62.813 C 27.05 62.813 32.063 67.825 32.063 74 C 32.063 80.175 27.05 85.188 20.875 85.188 C 14.7 85.188 9.688 80.175 9.688 74 Z " fill-rule="evenodd" fill="rgba(1,1,1,.2)">
        <animateTransform type="rotate" attributeName="transform" attributeType="XML" from="360 20.875 74.005" to="0 20.875 74.005"  begin="0s" dur="7s" repeatCount="indefinite"/>
    </path>
    <path d=" M 71.369 85.859 C 71.369 83.45 73.325 81.494 75.734 81.494 C 78.144 81.494 80.1 83.45 80.1 85.859 C 80.1 88.269 78.144 90.225 75.734 90.225 C 73.325 90.225 71.369 88.269 71.369 85.859 Z  M 77.674 74.942 L 77.674 73.572 C 77.674 72.756 77.012 72.094 76.196 72.094 L 75.272 72.094 C 74.457 72.094 73.794 72.756 73.794 73.572 L 73.794 74.942 C 72.178 75.228 70.682 75.865 69.389 76.77 L 68.418 75.799 C 67.841 75.222 66.904 75.222 66.327 75.799 L 65.674 76.452 C 65.097 77.029 65.097 77.966 65.674 78.543 L 66.645 79.514 C 65.74 80.807 65.103 82.303 64.817 83.919 L 63.447 83.919 C 62.631 83.919 61.969 84.582 61.969 85.397 L 61.969 86.321 C 61.969 87.137 62.631 87.799 63.447 87.799 L 64.817 87.799 C 65.103 89.416 65.74 90.911 66.645 92.205 L 65.674 93.176 C 65.097 93.753 65.097 94.69 65.674 95.267 L 66.327 95.92 C 66.904 96.497 67.841 96.497 68.418 95.92 L 69.389 94.949 C 70.682 95.854 72.178 96.491 73.794 96.776 L 73.794 98.147 C 73.794 98.963 74.457 99.625 75.272 99.625 L 76.196 99.625 C 77.012 99.625 77.674 98.963 77.674 98.147 L 77.674 96.776 C 79.291 96.491 80.786 95.854 82.08 94.949 L 83.051 95.92 C 83.628 96.497 84.565 96.497 85.142 95.92 L 85.795 95.267 C 86.372 94.69 86.372 93.753 85.795 93.176 L 84.824 92.205 C 85.729 90.911 86.366 89.416 86.651 87.799 L 88.022 87.799 C 88.838 87.799 89.5 87.137 89.5 86.321 L 89.5 85.397 C 89.5 84.582 88.838 83.919 88.022 83.919 L 86.651 83.919 C 86.366 82.303 85.729 80.807 84.824 79.514 L 85.795 78.543 C 86.372 77.966 86.372 77.029 85.795 76.452 L 85.142 75.799 C 84.565 75.222 83.628 75.222 83.051 75.799 L 82.08 76.77 C 80.786 75.865 79.291 75.228 77.674 74.942 Z  M 67.466 85.859 C 67.466 81.296 71.171 77.591 75.734 77.591 C 80.298 77.591 84.003 81.296 84.003 85.859 C 84.003 90.423 80.298 94.128 75.734 94.128 C 71.171 94.128 67.466 90.423 67.466 85.859 Z " fill-rule="evenodd" fill="rgba(1,1,1,.2)">
        <animateTransform type="rotate" attributeName="transform" attributeType="XML" from="0 75.735 85.855" to="360 75.735 85.855"  begin="0s" dur="3s" repeatCount="indefinite"/>
    </path>
    <path d=" M -25.207 35.478 C -24.417 34.503 -23.526 33.612 -22.551 32.821 L -24.429 29.568 C -24.561 29.34 -24.482 29.048 -24.254 28.916 L -20.217 26.585 C -19.989 26.454 -19.697 26.532 -19.565 26.76 L -17.69 30.008 C -16.532 29.562 -15.317 29.234 -14.058 29.036 L -14.058 25.284 C -14.058 25.021 -13.844 24.807 -13.581 24.807 L -8.919 24.807 C -8.656 24.807 -8.442 25.021 -8.442 25.284 L -8.442 29.036 C -7.183 29.234 -5.968 29.562 -4.81 30.008 L -2.935 26.76 C -2.803 26.532 -2.511 26.454 -2.283 26.585 L 1.754 28.916 C 1.982 29.048 2.061 29.34 1.929 29.568 L 0.051 32.821 C 1.026 33.612 1.917 34.503 2.707 35.478 L 5.96 33.6 C 6.189 33.468 6.481 33.546 6.613 33.774 L 8.943 37.811 C 9.075 38.039 8.997 38.331 8.768 38.463 L 5.521 40.338 C 5.966 41.496 6.295 42.712 6.493 43.97 L 10.244 43.97 C 10.508 43.97 10.722 44.184 10.722 44.448 L 10.722 49.109 C 10.722 49.373 10.508 49.587 10.244 49.587 L 6.493 49.587 C 6.295 50.845 5.966 52.061 5.521 53.219 L 8.768 55.094 C 8.997 55.225 9.075 55.518 8.943 55.746 L 6.613 59.783 C 6.481 60.011 6.189 60.089 5.96 59.957 L 2.707 58.079 C 1.917 59.054 1.026 59.945 0.051 60.736 L 1.929 63.989 C 2.061 64.217 1.982 64.509 1.754 64.641 L -2.283 66.972 C -2.511 67.103 -2.803 67.025 -2.935 66.797 L -4.81 63.549 C -5.968 63.994 -7.183 64.323 -8.442 64.521 L -8.442 68.273 C -8.442 68.536 -8.656 68.75 -8.919 68.75 L -13.581 68.75 C -13.844 68.75 -14.058 68.536 -14.058 68.273 L -14.058 64.521 C -15.317 64.323 -16.532 63.994 -17.69 63.549 L -19.565 66.797 C -19.697 67.025 -19.989 67.103 -20.217 66.972 L -24.254 64.641 C -24.482 64.509 -24.561 64.217 -24.429 63.989 L -22.551 60.736 C -23.526 59.945 -24.417 59.054 -25.207 58.079 L -28.46 59.957 C -28.689 60.089 -28.981 60.011 -29.113 59.783 L -31.443 55.746 C -31.575 55.518 -31.497 55.225 -31.268 55.094 L -28.021 53.219 C -28.466 52.061 -28.795 50.845 -28.993 49.587 L -32.744 49.587 C -33.008 49.587 -33.222 49.373 -33.222 49.109 L -33.222 44.448 C -33.222 44.184 -33.008 43.97 -32.744 43.97 L -28.993 43.97 C -28.795 42.712 -28.466 41.496 -28.021 40.338 L -31.268 38.463 C -31.497 38.331 -31.575 38.039 -31.443 37.811 L -29.113 33.774 C -28.981 33.546 -28.689 33.468 -28.46 33.6 L -25.207 35.478 Z  M -17.851 46.778 C -17.851 43.135 -14.893 40.177 -11.25 40.177 C -7.607 40.177 -4.649 43.135 -4.649 46.778 C -4.649 50.422 -7.607 53.38 -11.25 53.38 C -14.893 53.38 -17.851 50.422 -17.851 46.778 Z " fill-rule="evenodd" fill="rgba(1,1,1,.2)">
        <animateTransform type="rotate" attributeName="transform" attributeType="XML" from="0 -11.25 46.78" to="360 -11.25 46.78"  begin="0s" dur="7s" repeatCount="indefinite"/>
    </path>
    <path d=" M 102.793 35.478 C 103.583 34.503 104.474 33.612 105.449 32.821 L 103.571 29.568 C 103.439 29.34 103.518 29.048 103.746 28.916 L 107.783 26.585 C 108.011 26.454 108.303 26.532 108.435 26.76 L 110.31 30.008 C 111.468 29.562 112.683 29.234 113.942 29.036 L 113.942 25.284 C 113.942 25.021 114.156 24.807 114.419 24.807 L 119.081 24.807 C 119.344 24.807 119.558 25.021 119.558 25.284 L 119.558 29.036 C 120.817 29.234 122.032 29.562 123.19 30.008 L 125.065 26.76 C 125.197 26.532 125.489 26.454 125.717 26.585 L 129.754 28.916 C 129.982 29.048 130.061 29.34 129.929 29.568 L 128.051 32.821 C 129.026 33.612 129.917 34.503 130.707 35.478 L 132.96 33.6 C 134.189 33.468 134.481 33.546 134.613 33.774 L 136.943 37.811 C 137.075 38.039 136.997 38.332 136.768 38.463 L 133.521 40.338 C 133.966 41.496 134.295 42.712 134.493 43.97 L 138.244 43.97 C 138.508 43.97 138.722 44.184 138.722 44.448 L 138.722 49.109 C 138.722 49.373 138.508 49.587 138.244 49.587 L 134.493 49.587 C 134.295 50.845 133.966 52.061 133.521 53.219 L 136.768 55.094 C 136.997 55.225 137.075 55.518 136.943 55.746 L 134.613 59.783 C 134.481 60.011 134.189 60.089 133.96 59.957 L 130.707 58.079 C 129.917 59.054 129.026 59.945 128.051 60.736 L 129.929 63.989 C 130.061 64.217 129.982 64.509 129.754 64.641 L 125.717 66.972 C 125.489 67.103 125.197 67.025 125.065 66.797 L 123.19 63.549 C 122.032 63.994 120.817 64.323 119.558 64.521 L 119.558 68.273 C 119.558 68.536 119.344 68.75 119.081 68.75 L 114.419 68.75 C 114.156 68.75 113.942 68.536 113.942 68.273 L 113.942 64.521 C 112.683 64.323 111.468 63.994 110.31 63.549 L 108.435 66.797 C 108.303 67.025 108.011 67.103 107.783 66.972 L 103.746 64.641 C 103.518 64.509 103.439 64.217 103.571 63.989 L 105.449 60.736 C 104.474 59.945 103.583 59.054 102.793 58.079 L 99.54 59.957 C 99.311 60.089 99.019 60.011 98.887 59.783 L 96.557 55.746 C 96.425 55.518 96.503 55.225 96.732 55.094 L 99.979 53.219 C 99.534 52.061 99.205 50.845 99.007 49.587 L 95.256 49.587 C 94.992 49.587 94.778 49.373 94.778 49.109 L 94.778 44.448 C 94.778 44.184 94.992 43.97 95.256 43.97 L 99.007 43.97 C 99.205 42.712 99.534 41.496 99.979 40.338 L 96.732 38.463 C 96.503 38.332 96.425 38.039 96.557 37.811 L 98.887 33.774 C 99.019 33.546 99.311 33.468 99.54 33.6 L 102.793 35.478 Z  M 110.149 46.778 C 110.149 43.135 113.107 40.177 116.75 40.177 C 120.393 40.177 123.351 43.135 123.351 46.778 C 123.351 50.422 120.393 53.38 116.75 53.38 C 113.107 53.38 110.149 50.422 110.149 46.778 Z " fill-rule="evenodd" fill="rgba(1,1,1,.2)">
        <animateTransform type="rotate" attributeName="transform" attributeType="XML" from="0 117.25 46.78" to="360 117.25 46.78"  begin="0s" dur="7s" repeatCount="indefinite"/>
    </path>
    </g>
  </svg>
