<?xml version="1.0" standalone="no"?><!-- Generator: Gravit.io -->
<svg xmlns="http://www.w3.org/2000/svg" xmlns:xlink="http://www.w3.org/1999/xlink" style="isolation:isolate" viewBox="0 0 510 510" width="510" height="510">
  <defs>
    <clipPath id="_clipPath_xcqIFuHpOFeLK4xc3vYkdia5HIEGd5O7">
      <rect width="510" height="510"/>
    </clipPath>
  </defs>
  <g clip-path="url(#_clipPath_xcqIFuHpOFeLK4xc3vYkdia5HIEGd5O7)">
    <path fill="rgb(185,185,193)" d=" M 52.345 325.615 C 48.912 315.774 46.176 305.607 44.196 295.173 L 31.65 295.173 C 25.22 295.173 20 289.953 20 283.523 L 20 226.477 C 20 220.047 25.22 214.827 31.65 214.827 L 44.196 214.827 C 46.176 204.393 48.912 194.226 52.345 184.385 L 41.487 178.116 C 35.918 174.901 34.008 167.77 37.223 162.202 L 65.746 112.798 C 68.961 107.23 76.092 105.319 81.66 108.534 L 92.587 114.843 C 99.454 106.894 106.894 99.454 114.843 92.587 L 108.534 81.66 C 105.319 76.092 107.23 68.961 112.798 65.746 L 162.202 37.223 C 167.77 34.008 174.901 35.918 178.116 41.487 L 184.385 52.345 C 194.226 48.912 204.393 46.176 214.827 44.196 L 214.827 31.65 C 214.827 25.22 220.047 20 226.477 20 L 283.523 20 C 289.953 20 295.173 25.22 295.173 31.65 L 295.173 44.196 C 305.607 46.176 315.774 48.912 325.615 52.345 L 331.884 41.487 C 335.099 35.918 342.23 34.008 347.798 37.223 L 397.202 65.746 C 402.77 68.961 404.681 76.092 401.466 81.66 L 395.157 92.587 C 403.106 99.454 410.546 106.894 417.413 114.843 L 428.34 108.534 C 433.908 105.319 441.039 107.23 444.254 112.798 L 472.777 162.202 C 475.992 167.77 474.082 174.901 468.513 178.116 L 457.655 184.385 C 461.088 194.226 463.824 204.393 465.804 214.827 L 478.35 214.827 C 484.78 214.827 490 220.047 490 226.477 L 490 283.523 C 490 289.953 484.78 295.173 478.35 295.173 L 465.804 295.173 C 463.824 305.607 461.088 315.774 457.655 325.615 L 468.513 331.884 C 474.082 335.099 475.992 342.23 472.777 347.798 L 444.254 397.202 C 441.039 402.77 433.908 404.681 428.34 401.466 L 417.413 395.157 C 410.546 403.106 403.106 410.546 395.157 417.413 L 401.466 428.34 C 404.681 433.908 402.77 441.039 397.202 444.254 L 347.798 472.777 C 342.23 475.992 335.099 474.082 331.884 468.513 L 325.615 457.655 C 315.774 461.088 305.607 463.824 295.173 465.804 L 295.173 478.35 C 295.173 484.78 289.953 490 283.523 490 L 226.477 490 C 220.047 490 214.827 484.78 214.827 478.35 L 214.827 465.804 C 204.393 463.824 194.226 461.088 184.385 457.655 L 178.116 468.513 C 174.901 474.082 167.77 475.992 162.202 472.777 L 112.798 444.254 C 107.23 441.039 105.319 433.908 108.534 428.34 L 114.843 417.413 C 106.894 410.546 99.454 403.106 92.587 395.157 L 81.66 401.466 C 76.092 404.681 68.961 402.77 65.746 397.202 L 37.223 347.798 C 34.008 342.23 35.918 335.099 41.487 331.884 L 52.345 325.615 Z ">
     <animateTransform type="rotate" attributeName="transform" attributeType="XML" from="0 255 255" to="360 255 255"  begin="0s" dur="8s" repeatCount="indefinite"/>
    </path>
    <path fill="rgb(154,153,157)" d=" M 57.939 237.8 C 58.44 231.994 59.192 226.259 60.185 220.606 L 47.028 217.081 C 44.735 216.467 43.373 214.107 43.987 211.814 L 50.665 186.893 C 51.279 184.601 53.639 183.239 55.931 183.853 L 69.08 187.376 C 71.067 181.921 73.287 176.578 75.729 171.359 L 63.928 164.546 C 61.873 163.359 61.168 160.727 62.355 158.672 L 75.255 136.328 C 76.441 134.273 79.073 133.568 81.128 134.754 L 92.965 141.588 C 96.287 136.852 99.811 132.269 103.525 127.85 L 93.85 118.175 C 92.172 116.497 92.172 113.772 93.85 112.094 L 112.094 93.85 C 113.772 92.172 116.497 92.172 118.175 93.85 L 127.85 103.525 C 132.269 99.811 136.852 96.287 141.588 92.965 L 134.754 81.128 C 133.568 79.073 134.273 76.441 136.328 75.255 L 158.672 62.355 C 160.727 61.168 163.359 61.873 164.546 63.928 L 171.359 75.729 C 176.578 73.287 181.921 71.067 187.376 69.08 L 183.853 55.931 C 183.239 53.639 184.601 51.279 186.893 50.665 L 211.814 43.987 C 214.107 43.373 216.467 44.735 217.081 47.028 L 220.606 60.185 C 226.259 59.192 231.994 58.44 237.8 57.939 L 237.8 44.3 C 237.8 41.927 239.727 40 242.1 40 L 267.9 40 C 270.273 40 272.2 41.927 272.2 44.3 L 272.2 57.939 C 278.006 58.44 283.741 59.192 289.394 60.185 L 292.919 47.028 C 293.533 44.735 295.893 43.373 298.186 43.987 L 323.107 50.665 C 325.399 51.279 326.761 53.639 326.147 55.931 L 322.624 69.08 C 328.079 71.067 333.422 73.287 338.641 75.729 L 345.454 63.928 C 346.641 61.873 349.273 61.168 351.328 62.355 L 373.672 75.255 C 375.727 76.441 376.432 79.073 375.246 81.128 L 368.412 92.965 C 373.148 96.287 377.731 99.811 382.15 103.525 L 391.825 93.85 C 393.503 92.172 396.228 92.172 397.906 93.85 L 416.15 112.094 C 417.828 113.772 417.828 116.497 416.15 118.175 L 406.475 127.85 C 410.189 132.269 413.713 136.852 417.035 141.588 L 428.872 134.754 C 430.927 133.568 433.559 134.273 434.745 136.328 L 447.645 158.672 C 448.832 160.727 448.127 163.359 446.072 164.546 L 434.271 171.359 C 436.713 176.578 438.933 181.921 440.92 187.376 L 454.069 183.853 C 456.361 183.239 458.721 184.601 459.335 186.893 L 466.013 211.814 C 466.627 214.107 465.265 216.467 462.972 217.081 L 449.815 220.606 C 450.808 226.259 451.56 231.994 452.061 237.8 L 465.7 237.8 C 468.073 237.8 470 239.727 470 242.1 L 470 267.9 C 470 270.273 468.073 272.2 465.7 272.2 L 452.061 272.2 C 451.56 278.006 450.808 283.741 449.815 289.394 L 462.972 292.919 C 465.265 293.533 466.627 295.893 466.013 298.186 L 459.335 323.107 C 458.721 325.399 456.361 326.761 454.069 326.147 L 440.92 322.624 C 438.933 328.079 436.713 333.422 434.271 338.641 L 446.072 345.454 C 448.127 346.641 448.832 349.273 447.645 351.328 L 434.745 373.672 C 433.559 375.727 430.927 376.432 428.872 375.246 L 417.035 368.412 C 413.713 373.148 410.189 377.731 406.475 382.15 L 416.15 391.825 C 417.828 393.503 417.828 396.228 416.15 397.906 L 397.906 416.15 C 396.228 417.828 393.503 417.828 391.825 416.15 L 382.15 406.475 C 377.731 410.189 373.148 413.713 368.412 417.035 L 375.246 428.872 C 376.432 430.927 375.727 433.559 373.672 434.745 L 351.328 447.645 C 349.273 448.832 346.641 448.127 345.454 446.072 L 338.641 434.271 C 333.422 436.713 328.079 438.933 322.624 440.92 L 326.147 454.069 C 326.761 456.361 325.399 458.721 323.107 459.335 L 298.186 466.013 C 295.893 466.627 293.533 465.265 292.919 462.972 L 289.394 449.815 C 283.741 450.808 278.006 451.56 272.2 452.061 L 272.2 465.7 C 272.2 468.073 270.273 470 267.9 470 L 242.1 470 C 239.727 470 237.8 468.073 237.8 465.7 L 237.8 452.061 C 231.994 451.56 226.259 450.808 220.606 449.815 L 217.081 462.972 C 216.467 465.265 214.107 466.627 211.814 466.013 L 186.893 459.335 C 184.601 458.721 183.239 456.361 183.853 454.069 L 187.376 440.92 C 181.921 438.933 176.578 436.713 171.359 434.271 L 164.546 446.072 C 163.359 448.127 160.727 448.832 158.672 447.645 L 136.328 434.745 C 134.273 433.559 133.568 430.927 134.754 428.872 L 141.588 417.035 C 136.852 413.713 132.269 410.189 127.85 406.475 L 118.175 416.15 C 116.497 417.828 113.772 417.828 112.094 416.15 L 93.85 397.906 C 92.172 396.228 92.172 393.503 93.85 391.825 L 103.525 382.15 C 99.811 377.731 96.287 373.148 92.965 368.412 L 81.128 375.246 C 79.073 376.432 76.441 375.727 75.255 373.672 L 62.355 351.328 C 61.168 349.273 61.873 346.641 63.928 345.454 L 75.729 338.641 C 73.287 333.422 71.067 328.079 69.08 322.624 L 55.931 326.147 C 53.639 326.761 51.279 325.399 50.665 323.107 L 43.987 298.186 C 43.373 295.893 44.735 293.533 47.028 292.919 L 60.185 289.394 C 59.192 283.741 58.44 278.006 57.939 272.2 L 44.3 272.2 C 41.927 272.2 40 270.273 40 267.9 L 40 242.1 C 40 239.727 41.927 237.8 44.3 237.8 L 57.939 237.8 Z ">
     <animateTransform type="rotate" attributeName="transform" attributeType="XML" from="360 255 255" to="0 255 255"  begin="0s" dur="4s" repeatCount="indefinite"/>
    </path>
 </g>
</svg>