<?xml version="1.0" standalone="no"?><!-- Generator: Gravit.io --><svg xmlns="http://www.w3.org/2000/svg" xmlns:xlink="http://www.w3.org/1999/xlink" style="isolation:isolate" viewBox="0 0 32 32" width="32" height="32"><defs><clipPath id="_clipPath_TQlir4FEaCvjgR6zNdEe1P7JwD28IZzt"><rect width="32" height="32"/></clipPath></defs><g clip-path="url(#_clipPath_TQlir4FEaCvjgR6zNdEe1P7JwD28IZzt)"><path d=" M 0 16 C 0 7.169 7.169 0 16 0 C 24.831 0 32 7.169 32 16 C 32 24.831 24.831 32 16 32 C 7.169 32 0 24.831 0 16 Z " fill="rgb(235,235,235)"/><path d=" M 5.336 10.516 C 5.336 7.165 8.056 4.444 11.407 4.444 C 14.758 4.444 17.479 7.165 17.479 10.516 C 17.479 13.867 14.758 16.588 11.407 16.588 C 8.056 16.588 5.336 13.867 5.336 10.516 Z " fill="rgb(18,204,198)"/><path d=" M 16.701 19.857 C 16.701 17.108 18.933 14.875 21.683 14.875 C 24.432 14.875 26.664 17.108 26.664 19.857 C 26.664 22.607 24.432 24.839 21.683 24.839 C 18.933 24.839 16.701 22.607 16.701 19.857 Z " fill="rgb(253,45,122)"/><path d=" M 7.982 24.13 C 7.982 22.24 9.517 20.705 11.407 20.705 C 13.298 20.705 14.832 22.24 14.832 24.13 C 14.832 26.021 13.298 27.556 11.407 27.556 C 9.517 27.556 7.982 26.021 7.982 24.13 Z " fill="rgb(252,181,54)"/></g></svg>