<?xml version="1.0" standalone="no"?><!-- Generator: Gravit.io --><svg xmlns="http://www.w3.org/2000/svg" xmlns:xlink="http://www.w3.org/1999/xlink" style="isolation:isolate" viewBox="0 0 256 168" width="256" height="168"><defs><clipPath id="_clipPath_5uQbsRuIiRHTxr95GcfOChNvkjNYVh0D"><rect width="256" height="168"/></clipPath></defs><g clip-path="url(#_clipPath_5uQbsRuIiRHTxr95GcfOChNvkjNYVh0D)"><g id="Group"><path d=" M 127.241 8.151 L 152.27 17.226 L 124.963 101.537 L 96.399 95.753 L 127.241 8.151 Z " fill="rgb(253,45,122)"/><path d=" M 156.33 87.661 L 133.315 87.661 L 139.388 68.89 L 149.429 68.798 L 127.241 8.151 L 155.332 8.151 L 191.775 101.537 L 161.406 101.537 L 156.33 87.661 Z " fill="rgb(252,181,54)"/><path d=" M 64.225 8.151 L 92.316 8.151 L 124.963 101.537 L 94.594 101.537 L 64.225 8.151 Z " fill="rgb(18,204,198)"/></g><path d=" M 4.498 161.969 L 4.498 161.969 L 4.498 161.969 Q 4.498 161.899 4.568 161.618 L 4.568 161.618 L 11.34 139.549 L 11.34 139.549 Q 11.547 138.812 12.368 138.409 L 12.368 138.409 L 12.368 138.409 Q 13.19 138.005 14.242 138.005 L 14.242 138.005 L 14.242 138.005 Q 15.294 138.005 16.136 138.409 L 16.136 138.409 L 16.136 138.409 Q 16.977 138.812 17.188 139.549 L 17.188 139.549 L 23.959 161.618 L 23.959 161.618 Q 24.029 161.899 24.029 161.969 L 24.029 161.969 L 24.029 161.969 Q 24.029 162.741 23.082 163.302 L 23.082 163.302 L 23.082 163.302 Q 22.134 163.863 21.152 163.863 L 21.152 163.863 L 21.152 163.863 Q 19.854 163.863 19.608 162.951 L 19.608 162.951 L 18.275 158.285 L 10.228 158.285 L 8.919 162.951 L 8.919 162.951 Q 8.673 163.863 7.375 163.863 L 7.375 163.863 L 7.375 163.863 Q 6.358 163.863 5.428 163.32 L 5.428 163.32 L 5.428 163.32 Q 4.498 162.776 4.498 161.969 Z  M 14.252 143.935 L 11.231 154.706 L 17.315 154.706 L 14.252 143.935 Z  M 26.462 162.46 L 26.462 162.46 L 26.462 139.619 L 26.462 139.619 Q 26.462 139.058 27.023 138.637 L 27.023 138.637 L 27.023 138.637 Q 27.585 138.216 28.462 138.216 L 28.462 138.216 L 34.672 138.216 L 34.672 138.216 Q 38.426 138.216 40.671 140.145 L 40.671 140.145 L 40.671 140.145 Q 42.917 142.075 42.917 146.25 L 42.917 146.25 L 42.917 155.829 L 42.917 155.829 Q 42.917 160.004 40.671 161.934 L 40.671 161.934 L 40.671 161.934 Q 38.426 163.863 34.672 163.863 L 34.672 163.863 L 28.462 163.863 L 28.462 163.863 Q 27.585 163.863 27.023 163.442 L 27.023 163.442 L 27.023 163.442 Q 26.462 163.021 26.462 162.46 Z  M 31.023 142.216 L 31.023 159.864 L 34.672 159.864 L 34.672 159.864 Q 38.356 159.864 38.356 155.829 L 38.356 155.829 L 38.356 146.25 L 38.356 146.25 Q 38.356 142.216 34.672 142.216 L 34.672 142.216 L 31.023 142.216 Z  M 46.812 162.425 L 46.812 162.425 L 46.812 140.496 L 46.812 140.496 Q 46.812 139.338 47.461 138.777 L 47.461 138.777 L 47.461 138.777 Q 48.11 138.216 49.092 138.216 L 49.092 138.216 L 49.092 138.216 Q 50.39 138.216 51.092 138.672 L 51.092 138.672 L 51.092 138.672 Q 51.794 139.128 52.636 140.637 L 52.636 140.637 L 56.951 148.496 L 61.267 140.637 L 61.267 140.637 Q 62.109 139.128 62.828 138.672 L 62.828 138.672 L 62.828 138.672 Q 63.547 138.216 64.846 138.216 L 64.846 138.216 L 64.846 138.216 Q 65.828 138.216 66.477 138.777 L 66.477 138.777 L 66.477 138.777 Q 67.126 139.338 67.126 140.496 L 67.126 140.496 L 67.126 162.425 L 67.126 162.425 Q 67.126 163.092 66.442 163.477 L 66.442 163.477 L 66.442 163.477 Q 65.758 163.863 64.846 163.863 L 64.846 163.863 L 64.846 163.863 Q 63.898 163.863 63.232 163.477 L 63.232 163.477 L 63.232 163.477 Q 62.565 163.092 62.565 162.425 L 62.565 162.425 L 62.565 147.338 L 58.46 154.636 L 58.46 154.636 Q 57.969 155.548 56.916 155.548 L 56.916 155.548 L 56.916 155.548 Q 55.899 155.548 55.408 154.636 L 55.408 154.636 L 51.373 147.057 L 51.373 162.425 L 51.373 162.425 Q 51.373 163.092 50.688 163.477 L 50.688 163.477 L 50.688 163.477 Q 50.004 163.863 49.092 163.863 L 49.092 163.863 L 49.092 163.863 Q 48.145 163.863 47.478 163.477 L 47.478 163.477 L 47.478 163.477 Q 46.812 163.092 46.812 162.425 Z  M 71.336 162.425 L 71.336 162.425 L 71.336 139.619 L 71.336 139.619 Q 71.336 138.917 72.003 138.567 L 72.003 138.567 L 72.003 138.567 Q 72.67 138.216 73.617 138.216 L 73.617 138.216 L 73.617 138.216 Q 74.564 138.216 75.231 138.567 L 75.231 138.567 L 75.231 138.567 Q 75.898 138.917 75.898 139.619 L 75.898 139.619 L 75.898 162.425 L 75.898 162.425 Q 75.898 163.092 75.213 163.477 L 75.213 163.477 L 75.213 163.477 Q 74.529 163.863 73.617 163.863 L 73.617 163.863 L 73.617 163.863 Q 72.67 163.863 72.003 163.477 L 72.003 163.477 L 72.003 163.477 Q 71.336 163.092 71.336 162.425 Z  M 80.108 162.425 L 80.108 162.425 L 80.108 139.654 L 80.108 139.654 Q 80.108 138.953 80.775 138.584 L 80.775 138.584 L 80.775 138.584 Q 81.441 138.216 82.388 138.216 L 82.388 138.216 L 82.388 138.216 Q 83.652 138.216 84.318 138.672 L 84.318 138.672 L 84.318 138.672 Q 84.985 139.128 85.792 140.637 L 85.792 140.637 L 92.563 153.724 L 92.563 139.619 L 92.563 139.619 Q 92.563 138.917 93.23 138.567 L 93.23 138.567 L 93.23 138.567 Q 93.897 138.216 94.844 138.216 L 94.844 138.216 L 94.844 138.216 Q 95.791 138.216 96.458 138.567 L 96.458 138.567 L 96.458 138.567 Q 97.125 138.917 97.125 139.619 L 97.125 139.619 L 97.125 162.425 L 97.125 162.425 Q 97.125 163.092 96.44 163.477 L 96.44 163.477 L 96.44 163.477 Q 95.756 163.863 94.844 163.863 L 94.844 163.863 L 94.844 163.863 Q 92.984 163.863 92.213 162.425 L 92.213 162.425 L 84.669 148.32 L 84.669 162.425 L 84.669 162.425 Q 84.669 163.092 83.985 163.477 L 83.985 163.477 L 83.985 163.477 Q 83.301 163.863 82.388 163.863 L 82.388 163.863 L 82.388 163.863 Q 81.441 163.863 80.775 163.477 L 80.775 163.477 L 80.775 163.477 Q 80.108 163.092 80.108 162.425 Z  M 101.335 162.425 L 101.335 162.425 L 101.335 139.619 L 101.335 139.619 Q 101.335 138.917 102.001 138.567 L 102.001 138.567 L 102.001 138.567 Q 102.668 138.216 103.615 138.216 L 103.615 138.216 L 103.615 138.216 Q 104.563 138.216 105.229 138.567 L 105.229 138.567 L 105.229 138.567 Q 105.896 138.917 105.896 139.619 L 105.896 139.619 L 105.896 162.425 L 105.896 162.425 Q 105.896 163.092 105.212 163.477 L 105.212 163.477 L 105.212 163.477 Q 104.528 163.863 103.615 163.863 L 103.615 163.863 L 103.615 163.863 Q 102.668 163.863 102.001 163.477 L 102.001 163.477 L 102.001 163.477 Q 101.335 163.092 101.335 162.425 Z  M 108.843 159.829 L 108.843 159.829 L 108.843 159.829 Q 108.843 159.022 109.457 158.197 L 109.457 158.197 L 109.457 158.197 Q 110.071 157.373 110.843 157.373 L 110.843 157.373 L 110.843 157.373 Q 111.299 157.373 111.878 157.794 L 111.878 157.794 L 111.878 157.794 Q 112.457 158.215 113.001 158.723 L 113.001 158.723 L 113.001 158.723 Q 113.545 159.232 114.562 159.653 L 114.562 159.653 L 114.562 159.653 Q 115.58 160.074 116.808 160.074 L 116.808 160.074 L 116.808 160.074 Q 118.492 160.074 119.614 159.302 L 119.614 159.302 L 119.614 159.302 Q 120.737 158.53 120.737 157.022 L 120.737 157.022 L 120.737 157.022 Q 120.737 155.969 120.123 155.145 L 120.123 155.145 L 120.123 155.145 Q 119.509 154.32 118.509 153.776 L 118.509 153.776 L 118.509 153.776 Q 117.509 153.232 116.316 152.724 L 116.316 152.724 L 116.316 152.724 Q 115.124 152.215 113.913 151.583 L 113.913 151.583 L 113.913 151.583 Q 112.703 150.952 111.703 150.162 L 111.703 150.162 L 111.703 150.162 Q 110.703 149.373 110.089 148.057 L 110.089 148.057 L 110.089 148.057 Q 109.475 146.742 109.475 145.057 L 109.475 145.057 L 109.475 145.057 Q 109.475 143.198 110.229 141.777 L 110.229 141.777 L 110.229 141.777 Q 110.983 140.356 112.246 139.567 L 112.246 139.567 L 112.246 139.567 Q 113.51 138.777 114.948 138.409 L 114.948 138.409 L 114.948 138.409 Q 116.387 138.04 118.001 138.04 L 118.001 138.04 L 118.001 138.04 Q 118.913 138.04 119.93 138.163 L 119.93 138.163 L 119.93 138.163 Q 120.948 138.286 122.088 138.567 L 122.088 138.567 L 122.088 138.567 Q 123.228 138.847 123.948 139.444 L 123.948 139.444 L 123.948 139.444 Q 124.667 140.04 124.667 140.847 L 124.667 140.847 L 124.667 140.847 Q 124.667 141.619 124.176 142.444 L 124.176 142.444 L 124.176 142.444 Q 123.684 143.268 122.842 143.268 L 122.842 143.268 L 122.842 143.268 Q 122.527 143.268 121.123 142.601 L 121.123 142.601 L 121.123 142.601 Q 119.72 141.935 118.001 141.935 L 118.001 141.935 L 118.001 141.935 Q 116.106 141.935 115.071 142.654 L 115.071 142.654 L 115.071 142.654 Q 114.036 143.373 114.036 144.636 L 114.036 144.636 L 114.036 144.636 Q 114.036 145.654 114.878 146.408 L 114.878 146.408 L 114.878 146.408 Q 115.72 147.163 116.966 147.636 L 116.966 147.636 L 116.966 147.636 Q 118.211 148.11 119.667 148.829 L 119.667 148.829 L 119.667 148.829 Q 121.123 149.548 122.369 150.39 L 122.369 150.39 L 122.369 150.39 Q 123.614 151.233 124.456 152.829 L 124.456 152.829 L 124.456 152.829 Q 125.298 154.425 125.298 156.566 L 125.298 156.566 L 125.298 156.566 Q 125.298 160.215 123 162.197 L 123 162.197 L 123 162.197 Q 120.702 164.179 116.948 164.179 L 116.948 164.179 L 116.948 164.179 Q 113.615 164.179 111.229 162.811 L 111.229 162.811 L 111.229 162.811 Q 108.843 161.443 108.843 159.829 Z  M 126.737 140.251 L 126.737 140.251 L 126.737 140.251 Q 126.737 139.444 127.105 138.83 L 127.105 138.83 L 127.105 138.83 Q 127.474 138.216 128.175 138.216 L 128.175 138.216 L 143.017 138.216 L 143.017 138.216 Q 143.718 138.216 144.087 138.83 L 144.087 138.83 L 144.087 138.83 Q 144.455 139.444 144.455 140.251 L 144.455 140.251 L 144.455 140.251 Q 144.455 141.093 144.069 141.707 L 144.069 141.707 L 144.069 141.707 Q 143.683 142.321 143.017 142.321 L 143.017 142.321 L 137.894 142.321 L 137.894 162.425 L 137.894 162.425 Q 137.894 163.092 137.21 163.477 L 137.21 163.477 L 137.21 163.477 Q 136.526 163.863 135.614 163.863 L 135.614 163.863 L 135.614 163.863 Q 134.666 163.863 134 163.477 L 134 163.477 L 134 163.477 Q 133.333 163.092 133.333 162.425 L 133.333 162.425 L 133.333 142.321 L 128.175 142.321 L 128.175 142.321 Q 127.509 142.321 127.123 141.724 L 127.123 141.724 L 127.123 141.724 Q 126.737 141.128 126.737 140.251 Z  M 146.946 162.425 L 146.946 162.425 L 146.946 139.619 L 146.946 139.619 Q 146.946 139.058 147.367 138.637 L 147.367 138.637 L 147.367 138.637 Q 147.788 138.216 148.42 138.216 L 148.42 138.216 L 155.367 138.216 L 155.367 138.216 Q 163.682 138.216 163.682 145.549 L 163.682 145.549 L 163.682 145.549 Q 163.682 148.426 162.437 150.18 L 162.437 150.18 L 162.437 150.18 Q 161.191 151.934 159.086 152.566 L 159.086 152.566 L 163.682 161.092 L 163.682 161.092 Q 163.858 161.302 163.858 161.653 L 163.858 161.653 L 163.858 161.653 Q 163.858 162.53 162.945 163.285 L 162.945 163.285 L 162.945 163.285 Q 162.033 164.039 161.016 164.039 L 161.016 164.039 L 161.016 164.039 Q 159.998 164.039 159.437 162.951 L 159.437 162.951 L 154.455 153.268 L 151.507 153.268 L 151.507 162.425 L 151.507 162.425 Q 151.507 163.092 150.841 163.477 L 150.841 163.477 L 150.841 163.477 Q 150.174 163.863 149.227 163.863 L 149.227 163.863 L 149.227 163.863 Q 148.315 163.863 147.63 163.477 L 147.63 163.477 L 147.63 163.477 Q 146.946 163.092 146.946 162.425 Z  M 151.507 142.216 L 151.507 149.689 L 155.367 149.689 L 155.367 149.689 Q 159.121 149.689 159.121 145.97 L 159.121 145.97 L 159.121 145.97 Q 159.121 142.216 155.367 142.216 L 155.367 142.216 L 151.507 142.216 Z  M 165.156 161.969 L 165.156 161.969 L 165.156 161.969 Q 165.156 161.899 165.226 161.618 L 165.226 161.618 L 171.998 139.549 L 171.998 139.549 Q 172.205 138.812 173.026 138.409 L 173.026 138.409 L 173.026 138.409 Q 173.848 138.005 174.9 138.005 L 174.9 138.005 L 174.9 138.005 Q 175.951 138.005 176.793 138.409 L 176.793 138.409 L 176.793 138.409 Q 177.635 138.812 177.846 139.549 L 177.846 139.549 L 184.617 161.618 L 184.617 161.618 Q 184.687 161.899 184.687 161.969 L 184.687 161.969 L 184.687 161.969 Q 184.687 162.741 183.74 163.302 L 183.74 163.302 L 183.74 163.302 Q 182.792 163.863 181.81 163.863 L 181.81 163.863 L 181.81 163.863 Q 180.512 163.863 180.266 162.951 L 180.266 162.951 L 178.933 158.285 L 170.885 158.285 L 169.577 162.951 L 169.577 162.951 Q 169.331 163.863 168.033 163.863 L 168.033 163.863 L 168.033 163.863 Q 167.015 163.863 166.086 163.32 L 166.086 163.32 L 166.086 163.32 Q 165.156 162.776 165.156 161.969 Z  M 174.91 143.935 L 171.889 154.706 L 177.973 154.706 L 174.91 143.935 Z  M 185.435 140.251 L 185.435 140.251 L 185.435 140.251 Q 185.435 139.444 185.804 138.83 L 185.804 138.83 L 185.804 138.83 Q 186.172 138.216 186.874 138.216 L 186.874 138.216 L 201.715 138.216 L 201.715 138.216 Q 202.417 138.216 202.785 138.83 L 202.785 138.83 L 202.785 138.83 Q 203.154 139.444 203.154 140.251 L 203.154 140.251 L 203.154 140.251 Q 203.154 141.093 202.768 141.707 L 202.768 141.707 L 202.768 141.707 Q 202.382 142.321 201.715 142.321 L 201.715 142.321 L 196.593 142.321 L 196.593 162.425 L 196.593 162.425 Q 196.593 163.092 195.909 163.477 L 195.909 163.477 L 195.909 163.477 Q 195.224 163.863 194.312 163.863 L 194.312 163.863 L 194.312 163.863 Q 193.365 163.863 192.698 163.477 L 192.698 163.477 L 192.698 163.477 Q 192.032 163.092 192.032 162.425 L 192.032 162.425 L 192.032 142.321 L 186.874 142.321 L 186.874 142.321 Q 186.207 142.321 185.821 141.724 L 185.821 141.724 L 185.821 141.724 Q 185.435 141.128 185.435 140.251 Z  M 205.645 162.425 L 205.645 162.425 L 205.645 139.619 L 205.645 139.619 Q 205.645 138.917 206.311 138.567 L 206.311 138.567 L 206.311 138.567 Q 206.978 138.216 207.925 138.216 L 207.925 138.216 L 207.925 138.216 Q 208.873 138.216 209.539 138.567 L 209.539 138.567 L 209.539 138.567 Q 210.206 138.917 210.206 139.619 L 210.206 139.619 L 210.206 162.425 L 210.206 162.425 Q 210.206 163.092 209.522 163.477 L 209.522 163.477 L 209.522 163.477 Q 208.838 163.863 207.925 163.863 L 207.925 163.863 L 207.925 163.863 Q 206.978 163.863 206.311 163.477 L 206.311 163.477 L 206.311 163.477 Q 205.645 163.092 205.645 162.425 Z  M 214.136 156.039 L 214.136 156.039 L 214.136 146.25 L 214.136 146.25 Q 214.136 142.075 216.364 140.145 L 216.364 140.145 L 216.364 140.145 Q 218.591 138.216 222.346 138.216 L 222.346 138.216 L 222.346 138.216 Q 226.1 138.216 228.345 140.145 L 228.345 140.145 L 228.345 140.145 Q 230.591 142.075 230.591 146.25 L 230.591 146.25 L 230.591 156.039 L 230.591 156.039 Q 230.591 160.215 228.345 162.144 L 228.345 162.144 L 228.345 162.144 Q 226.1 164.074 222.346 164.074 L 222.346 164.074 L 222.346 164.074 Q 218.591 164.074 216.364 162.144 L 216.364 162.144 L 216.364 162.144 Q 214.136 160.215 214.136 156.039 Z  M 218.697 146.25 L 218.697 156.039 L 218.697 156.039 Q 218.697 160.074 222.346 160.074 L 222.346 160.074 L 222.346 160.074 Q 226.03 160.074 226.03 156.039 L 226.03 156.039 L 226.03 146.25 L 226.03 146.25 Q 226.03 142.216 222.346 142.216 L 222.346 142.216 L 222.346 142.216 Q 218.697 142.216 218.697 146.25 L 218.697 146.25 Z  M 234.485 162.425 L 234.485 162.425 L 234.485 139.654 L 234.485 139.654 Q 234.485 138.953 235.152 138.584 L 235.152 138.584 L 235.152 138.584 Q 235.819 138.216 236.766 138.216 L 236.766 138.216 L 236.766 138.216 Q 238.029 138.216 238.696 138.672 L 238.696 138.672 L 238.696 138.672 Q 239.362 139.128 240.169 140.637 L 240.169 140.637 L 246.941 153.724 L 246.941 139.619 L 246.941 139.619 Q 246.941 138.917 247.607 138.567 L 247.607 138.567 L 247.607 138.567 Q 248.274 138.216 249.221 138.216 L 249.221 138.216 L 249.221 138.216 Q 250.169 138.216 250.835 138.567 L 250.835 138.567 L 250.835 138.567 Q 251.502 138.917 251.502 139.619 L 251.502 139.619 L 251.502 162.425 L 251.502 162.425 Q 251.502 163.092 250.818 163.477 L 250.818 163.477 L 250.818 163.477 Q 250.134 163.863 249.221 163.863 L 249.221 163.863 L 249.221 163.863 Q 247.362 163.863 246.59 162.425 L 246.59 162.425 L 239.046 148.32 L 239.046 162.425 L 239.046 162.425 Q 239.046 163.092 238.362 163.477 L 238.362 163.477 L 238.362 163.477 Q 237.678 163.863 236.766 163.863 L 236.766 163.863 L 236.766 163.863 Q 235.819 163.863 235.152 163.477 L 235.152 163.477 L 235.152 163.477 Q 234.485 163.092 234.485 162.425 Z " fill-rule="evenodd" fill="rgb(0,0,0)"/></g></svg>