<?xml version="1.0" standalone="no"?><!-- Generator: Gravit.io --><svg xmlns="http://www.w3.org/2000/svg" xmlns:xlink="http://www.w3.org/1999/xlink" style="isolation:isolate" viewBox="0 0 256 40" width="256" height="40"><defs><clipPath id="_clipPath_jwq1uwTLoHBSIdF6BuxUQfKVXH2NfDod"><rect width="256" height="40"/></clipPath></defs><g clip-path="url(#_clipPath_jwq1uwTLoHBSIdF6BuxUQfKVXH2NfDod)"><path d=" M 27.212 8.151 L 33.564 10.454 L 26.634 31.849 L 19.386 30.381 L 27.212 8.151 Z " fill="rgb(253,45,122)"/><path d=" M 34.594 28.328 L 28.754 28.328 L 30.295 23.564 L 32.843 23.541 L 27.212 8.151 L 34.341 8.151 L 43.589 31.849 L 35.882 31.849 L 34.594 28.328 Z " fill="rgb(252,181,54)"/><path d=" M 11.221 8.151 L 18.35 8.151 L 26.634 31.849 L 18.928 31.849 L 11.221 8.151 Z " fill="rgb(18,204,198)"/><path d=" M 68.004 28.184 L 68.004 28.184 L 68.004 28.184 Q 68.004 28.136 68.052 27.944 L 68.052 27.944 L 72.684 12.848 L 72.684 12.848 Q 72.825 12.344 73.387 12.068 L 73.387 12.068 L 73.387 12.068 Q 73.949 11.792 74.669 11.792 L 74.669 11.792 L 74.669 11.792 Q 75.388 11.792 75.964 12.068 L 75.964 12.068 L 75.964 12.068 Q 76.54 12.344 76.684 12.848 L 76.684 12.848 L 81.315 27.944 L 81.315 27.944 Q 81.363 28.136 81.363 28.184 L 81.363 28.184 L 81.363 28.184 Q 81.363 28.712 80.716 29.096 L 80.716 29.096 L 80.716 29.096 Q 80.068 29.48 79.396 29.48 L 79.396 29.48 L 79.396 29.48 Q 78.508 29.48 78.34 28.856 L 78.34 28.856 L 77.428 25.664 L 71.923 25.664 L 71.028 28.856 L 71.028 28.856 Q 70.86 29.48 69.972 29.48 L 69.972 29.48 L 69.972 29.48 Q 69.276 29.48 68.64 29.108 L 68.64 29.108 L 68.64 29.108 Q 68.004 28.736 68.004 28.184 Z  M 74.676 15.848 L 72.609 23.216 L 76.771 23.216 L 74.676 15.848 Z  M 83.028 28.52 L 83.028 28.52 L 83.028 12.896 L 83.028 12.896 Q 83.028 12.512 83.412 12.224 L 83.412 12.224 L 83.412 12.224 Q 83.796 11.936 84.396 11.936 L 84.396 11.936 L 88.644 11.936 L 88.644 11.936 Q 91.212 11.936 92.748 13.256 L 92.748 13.256 L 92.748 13.256 Q 94.284 14.576 94.284 17.432 L 94.284 17.432 L 94.284 23.984 L 94.284 23.984 Q 94.284 26.84 92.748 28.16 L 92.748 28.16 L 92.748 28.16 Q 91.212 29.48 88.644 29.48 L 88.644 29.48 L 84.396 29.48 L 84.396 29.48 Q 83.796 29.48 83.412 29.192 L 83.412 29.192 L 83.412 29.192 Q 83.028 28.904 83.028 28.52 Z  M 86.148 14.672 L 86.148 26.744 L 88.644 26.744 L 88.644 26.744 Q 91.164 26.744 91.164 23.984 L 91.164 23.984 L 91.164 17.432 L 91.164 17.432 Q 91.164 14.672 88.644 14.672 L 88.644 14.672 L 86.148 14.672 Z  M 96.948 28.496 L 96.948 28.496 L 96.948 13.496 L 96.948 13.496 Q 96.948 12.704 97.392 12.32 L 97.392 12.32 L 97.392 12.32 Q 97.836 11.936 98.508 11.936 L 98.508 11.936 L 98.508 11.936 Q 99.396 11.936 99.876 12.248 L 99.876 12.248 L 99.876 12.248 Q 100.356 12.56 100.932 13.592 L 100.932 13.592 L 103.884 18.968 L 106.836 13.592 L 106.836 13.592 Q 107.412 12.56 107.904 12.248 L 107.904 12.248 L 107.904 12.248 Q 108.396 11.936 109.284 11.936 L 109.284 11.936 L 109.284 11.936 Q 109.956 11.936 110.4 12.32 L 110.4 12.32 L 110.4 12.32 Q 110.844 12.704 110.844 13.496 L 110.844 13.496 L 110.844 28.496 L 110.844 28.496 Q 110.844 28.952 110.376 29.216 L 110.376 29.216 L 110.376 29.216 Q 109.908 29.48 109.284 29.48 L 109.284 29.48 L 109.284 29.48 Q 108.636 29.48 108.18 29.216 L 108.18 29.216 L 108.18 29.216 Q 107.724 28.952 107.724 28.496 L 107.724 28.496 L 107.724 18.176 L 104.916 23.168 L 104.916 23.168 Q 104.58 23.792 103.86 23.792 L 103.86 23.792 L 103.86 23.792 Q 103.164 23.792 102.828 23.168 L 102.828 23.168 L 100.068 17.984 L 100.068 28.496 L 100.068 28.496 Q 100.068 28.952 99.6 29.216 L 99.6 29.216 L 99.6 29.216 Q 99.132 29.48 98.508 29.48 L 98.508 29.48 L 98.508 29.48 Q 97.86 29.48 97.404 29.216 L 97.404 29.216 L 97.404 29.216 Q 96.948 28.952 96.948 28.496 Z  M 113.724 28.496 L 113.724 28.496 L 113.724 12.896 L 113.724 12.896 Q 113.724 12.416 114.18 12.176 L 114.18 12.176 L 114.18 12.176 Q 114.636 11.936 115.284 11.936 L 115.284 11.936 L 115.284 11.936 Q 115.932 11.936 116.388 12.176 L 116.388 12.176 L 116.388 12.176 Q 116.844 12.416 116.844 12.896 L 116.844 12.896 L 116.844 28.496 L 116.844 28.496 Q 116.844 28.952 116.376 29.216 L 116.376 29.216 L 116.376 29.216 Q 115.908 29.48 115.284 29.48 L 115.284 29.48 L 115.284 29.48 Q 114.636 29.48 114.18 29.216 L 114.18 29.216 L 114.18 29.216 Q 113.724 28.952 113.724 28.496 Z  M 119.724 28.496 L 119.724 28.496 L 119.724 12.92 L 119.724 12.92 Q 119.724 12.44 120.18 12.188 L 120.18 12.188 L 120.18 12.188 Q 120.636 11.936 121.284 11.936 L 121.284 11.936 L 121.284 11.936 Q 122.148 11.936 122.604 12.248 L 122.604 12.248 L 122.604 12.248 Q 123.06 12.56 123.612 13.592 L 123.612 13.592 L 128.244 22.544 L 128.244 12.896 L 128.244 12.896 Q 128.244 12.416 128.7 12.176 L 128.7 12.176 L 128.7 12.176 Q 129.156 11.936 129.804 11.936 L 129.804 11.936 L 129.804 11.936 Q 130.452 11.936 130.908 12.176 L 130.908 12.176 L 130.908 12.176 Q 131.364 12.416 131.364 12.896 L 131.364 12.896 L 131.364 28.496 L 131.364 28.496 Q 131.364 28.952 130.896 29.216 L 130.896 29.216 L 130.896 29.216 Q 130.428 29.48 129.804 29.48 L 129.804 29.48 L 129.804 29.48 Q 128.532 29.48 128.004 28.496 L 128.004 28.496 L 122.844 18.848 L 122.844 28.496 L 122.844 28.496 Q 122.844 28.952 122.376 29.216 L 122.376 29.216 L 122.376 29.216 Q 121.908 29.48 121.284 29.48 L 121.284 29.48 L 121.284 29.48 Q 120.636 29.48 120.18 29.216 L 120.18 29.216 L 120.18 29.216 Q 119.724 28.952 119.724 28.496 Z  M 134.244 28.496 L 134.244 28.496 L 134.244 12.896 L 134.244 12.896 Q 134.244 12.416 134.7 12.176 L 134.7 12.176 L 134.7 12.176 Q 135.156 11.936 135.804 11.936 L 135.804 11.936 L 135.804 11.936 Q 136.452 11.936 136.908 12.176 L 136.908 12.176 L 136.908 12.176 Q 137.364 12.416 137.364 12.896 L 137.364 12.896 L 137.364 28.496 L 137.364 28.496 Q 137.364 28.952 136.896 29.216 L 136.896 29.216 L 136.896 29.216 Q 136.428 29.48 135.804 29.48 L 135.804 29.48 L 135.804 29.48 Q 135.156 29.48 134.7 29.216 L 134.7 29.216 L 134.7 29.216 Q 134.244 28.952 134.244 28.496 Z  M 139.38 26.72 L 139.38 26.72 L 139.38 26.72 Q 139.38 26.168 139.8 25.604 L 139.8 25.604 L 139.8 25.604 Q 140.22 25.04 140.748 25.04 L 140.748 25.04 L 140.748 25.04 Q 141.06 25.04 141.456 25.328 L 141.456 25.328 L 141.456 25.328 Q 141.852 25.616 142.224 25.964 L 142.224 25.964 L 142.224 25.964 Q 142.596 26.312 143.292 26.6 L 143.292 26.6 L 143.292 26.6 Q 143.988 26.888 144.828 26.888 L 144.828 26.888 L 144.828 26.888 Q 145.98 26.888 146.748 26.36 L 146.748 26.36 L 146.748 26.36 Q 147.516 25.832 147.516 24.8 L 147.516 24.8 L 147.516 24.8 Q 147.516 24.08 147.096 23.516 L 147.096 23.516 L 147.096 23.516 Q 146.676 22.952 145.992 22.58 L 145.992 22.58 L 145.992 22.58 Q 145.308 22.208 144.492 21.86 L 144.492 21.86 L 144.492 21.86 Q 143.676 21.512 142.848 21.08 L 142.848 21.08 L 142.848 21.08 Q 142.02 20.648 141.336 20.108 L 141.336 20.108 L 141.336 20.108 Q 140.652 19.568 140.232 18.668 L 140.232 18.668 L 140.232 18.668 Q 139.812 17.768 139.812 16.616 L 139.812 16.616 L 139.812 16.616 Q 139.812 15.344 140.328 14.372 L 140.328 14.372 L 140.328 14.372 Q 140.844 13.4 141.708 12.86 L 141.708 12.86 L 141.708 12.86 Q 142.572 12.32 143.556 12.068 L 143.556 12.068 L 143.556 12.068 Q 144.54 11.816 145.644 11.816 L 145.644 11.816 L 145.644 11.816 Q 146.268 11.816 146.964 11.9 L 146.964 11.9 L 146.964 11.9 Q 147.66 11.984 148.44 12.176 L 148.44 12.176 L 148.44 12.176 Q 149.22 12.368 149.712 12.776 L 149.712 12.776 L 149.712 12.776 Q 150.204 13.184 150.204 13.736 L 150.204 13.736 L 150.204 13.736 Q 150.204 14.264 149.868 14.828 L 149.868 14.828 L 149.868 14.828 Q 149.532 15.392 148.956 15.392 L 148.956 15.392 L 148.956 15.392 Q 148.74 15.392 147.78 14.936 L 147.78 14.936 L 147.78 14.936 Q 146.82 14.48 145.644 14.48 L 145.644 14.48 L 145.644 14.48 Q 144.348 14.48 143.64 14.972 L 143.64 14.972 L 143.64 14.972 Q 142.932 15.464 142.932 16.328 L 142.932 16.328 L 142.932 16.328 Q 142.932 17.024 143.508 17.54 L 143.508 17.54 L 143.508 17.54 Q 144.084 18.056 144.936 18.38 L 144.936 18.38 L 144.936 18.38 Q 145.788 18.704 146.784 19.196 L 146.784 19.196 L 146.784 19.196 Q 147.78 19.688 148.632 20.264 L 148.632 20.264 L 148.632 20.264 Q 149.484 20.84 150.06 21.932 L 150.06 21.932 L 150.06 21.932 Q 150.636 23.024 150.636 24.488 L 150.636 24.488 L 150.636 24.488 Q 150.636 26.984 149.064 28.34 L 149.064 28.34 L 149.064 28.34 Q 147.492 29.696 144.924 29.696 L 144.924 29.696 L 144.924 29.696 Q 142.644 29.696 141.012 28.76 L 141.012 28.76 L 141.012 28.76 Q 139.38 27.824 139.38 26.72 Z  M 151.62 13.328 L 151.62 13.328 L 151.62 13.328 Q 151.62 12.776 151.872 12.356 L 151.872 12.356 L 151.872 12.356 Q 152.124 11.936 152.604 11.936 L 152.604 11.936 L 162.756 11.936 L 162.756 11.936 Q 163.236 11.936 163.488 12.356 L 163.488 12.356 L 163.488 12.356 Q 163.74 12.776 163.74 13.328 L 163.74 13.328 L 163.74 13.328 Q 163.74 13.904 163.476 14.324 L 163.476 14.324 L 163.476 14.324 Q 163.212 14.744 162.756 14.744 L 162.756 14.744 L 159.252 14.744 L 159.252 28.496 L 159.252 28.496 Q 159.252 28.952 158.784 29.216 L 158.784 29.216 L 158.784 29.216 Q 158.316 29.48 157.692 29.48 L 157.692 29.48 L 157.692 29.48 Q 157.044 29.48 156.588 29.216 L 156.588 29.216 L 156.588 29.216 Q 156.132 28.952 156.132 28.496 L 156.132 28.496 L 156.132 14.744 L 152.604 14.744 L 152.604 14.744 Q 152.148 14.744 151.884 14.336 L 151.884 14.336 L 151.884 14.336 Q 151.62 13.928 151.62 13.328 Z  M 165.444 28.496 L 165.444 28.496 L 165.444 12.896 L 165.444 12.896 Q 165.444 12.512 165.732 12.224 L 165.732 12.224 L 165.732 12.224 Q 166.02 11.936 166.452 11.936 L 166.452 11.936 L 171.204 11.936 L 171.204 11.936 Q 176.892 11.936 176.892 16.952 L 176.892 16.952 L 176.892 16.952 Q 176.892 18.92 176.04 20.12 L 176.04 20.12 L 176.04 20.12 Q 175.188 21.32 173.748 21.752 L 173.748 21.752 L 176.892 27.584 L 176.892 27.584 Q 177.012 27.728 177.012 27.968 L 177.012 27.968 L 177.012 27.968 Q 177.012 28.568 176.388 29.084 L 176.388 29.084 L 176.388 29.084 Q 175.764 29.6 175.068 29.6 L 175.068 29.6 L 175.068 29.6 Q 174.372 29.6 173.988 28.856 L 173.988 28.856 L 170.58 22.232 L 168.564 22.232 L 168.564 28.496 L 168.564 28.496 Q 168.564 28.952 168.108 29.216 L 168.108 29.216 L 168.108 29.216 Q 167.652 29.48 167.004 29.48 L 167.004 29.48 L 167.004 29.48 Q 166.38 29.48 165.912 29.216 L 165.912 29.216 L 165.912 29.216 Q 165.444 28.952 165.444 28.496 Z  M 168.564 14.672 L 168.564 19.784 L 171.204 19.784 L 171.204 19.784 Q 173.772 19.784 173.772 17.24 L 173.772 17.24 L 173.772 17.24 Q 173.772 14.672 171.204 14.672 L 171.204 14.672 L 168.564 14.672 Z  M 177.9 28.184 L 177.9 28.184 L 177.9 28.184 Q 177.9 28.136 177.948 27.944 L 177.948 27.944 L 182.58 12.848 L 182.58 12.848 Q 182.721 12.344 183.283 12.068 L 183.283 12.068 L 183.283 12.068 Q 183.845 11.792 184.565 11.792 L 184.565 11.792 L 184.565 11.792 Q 185.284 11.792 185.86 12.068 L 185.86 12.068 L 185.86 12.068 Q 186.436 12.344 186.58 12.848 L 186.58 12.848 L 191.211 27.944 L 191.211 27.944 Q 191.259 28.136 191.259 28.184 L 191.259 28.184 L 191.259 28.184 Q 191.259 28.712 190.612 29.096 L 190.612 29.096 L 190.612 29.096 Q 189.964 29.48 189.292 29.48 L 189.292 29.48 L 189.292 29.48 Q 188.404 29.48 188.236 28.856 L 188.236 28.856 L 187.324 25.664 L 181.819 25.664 L 180.924 28.856 L 180.924 28.856 Q 180.756 29.48 179.868 29.48 L 179.868 29.48 L 179.868 29.48 Q 179.172 29.48 178.536 29.108 L 178.536 29.108 L 178.536 29.108 Q 177.9 28.736 177.9 28.184 Z  M 184.572 15.848 L 182.505 23.216 L 186.667 23.216 L 184.572 15.848 Z  M 191.772 13.328 L 191.772 13.328 L 191.772 13.328 Q 191.772 12.776 192.024 12.356 L 192.024 12.356 L 192.024 12.356 Q 192.276 11.936 192.756 11.936 L 192.756 11.936 L 202.908 11.936 L 202.908 11.936 Q 203.388 11.936 203.64 12.356 L 203.64 12.356 L 203.64 12.356 Q 203.892 12.776 203.892 13.328 L 203.892 13.328 L 203.892 13.328 Q 203.892 13.904 203.628 14.324 L 203.628 14.324 L 203.628 14.324 Q 203.364 14.744 202.908 14.744 L 202.908 14.744 L 199.404 14.744 L 199.404 28.496 L 199.404 28.496 Q 199.404 28.952 198.936 29.216 L 198.936 29.216 L 198.936 29.216 Q 198.468 29.48 197.844 29.48 L 197.844 29.48 L 197.844 29.48 Q 197.196 29.48 196.74 29.216 L 196.74 29.216 L 196.74 29.216 Q 196.284 28.952 196.284 28.496 L 196.284 28.496 L 196.284 14.744 L 192.756 14.744 L 192.756 14.744 Q 192.3 14.744 192.036 14.336 L 192.036 14.336 L 192.036 14.336 Q 191.772 13.928 191.772 13.328 Z  M 205.596 28.496 L 205.596 28.496 L 205.596 12.896 L 205.596 12.896 Q 205.596 12.416 206.052 12.176 L 206.052 12.176 L 206.052 12.176 Q 206.508 11.936 207.156 11.936 L 207.156 11.936 L 207.156 11.936 Q 207.804 11.936 208.26 12.176 L 208.26 12.176 L 208.26 12.176 Q 208.716 12.416 208.716 12.896 L 208.716 12.896 L 208.716 28.496 L 208.716 28.496 Q 208.716 28.952 208.248 29.216 L 208.248 29.216 L 208.248 29.216 Q 207.78 29.48 207.156 29.48 L 207.156 29.48 L 207.156 29.48 Q 206.508 29.48 206.052 29.216 L 206.052 29.216 L 206.052 29.216 Q 205.596 28.952 205.596 28.496 Z  M 211.404 24.128 L 211.404 24.128 L 211.404 17.432 L 211.404 17.432 Q 211.404 14.576 212.928 13.256 L 212.928 13.256 L 212.928 13.256 Q 214.452 11.936 217.02 11.936 L 217.02 11.936 L 217.02 11.936 Q 219.588 11.936 221.124 13.256 L 221.124 13.256 L 221.124 13.256 Q 222.66 14.576 222.66 17.432 L 222.66 17.432 L 222.66 24.128 L 222.66 24.128 Q 222.66 26.984 221.124 28.304 L 221.124 28.304 L 221.124 28.304 Q 219.588 29.624 217.02 29.624 L 217.02 29.624 L 217.02 29.624 Q 214.452 29.624 212.928 28.304 L 212.928 28.304 L 212.928 28.304 Q 211.404 26.984 211.404 24.128 Z  M 214.524 17.432 L 214.524 24.128 L 214.524 24.128 Q 214.524 26.888 217.02 26.888 L 217.02 26.888 L 217.02 26.888 Q 219.54 26.888 219.54 24.128 L 219.54 24.128 L 219.54 17.432 L 219.54 17.432 Q 219.54 14.672 217.02 14.672 L 217.02 14.672 L 217.02 14.672 Q 214.524 14.672 214.524 17.432 L 214.524 17.432 Z  M 225.324 28.496 L 225.324 28.496 L 225.324 12.92 L 225.324 12.92 Q 225.324 12.44 225.78 12.188 L 225.78 12.188 L 225.78 12.188 Q 226.236 11.936 226.884 11.936 L 226.884 11.936 L 226.884 11.936 Q 227.748 11.936 228.204 12.248 L 228.204 12.248 L 228.204 12.248 Q 228.66 12.56 229.212 13.592 L 229.212 13.592 L 233.844 22.544 L 233.844 12.896 L 233.844 12.896 Q 233.844 12.416 234.3 12.176 L 234.3 12.176 L 234.3 12.176 Q 234.756 11.936 235.404 11.936 L 235.404 11.936 L 235.404 11.936 Q 236.052 11.936 236.508 12.176 L 236.508 12.176 L 236.508 12.176 Q 236.964 12.416 236.964 12.896 L 236.964 12.896 L 236.964 28.496 L 236.964 28.496 Q 236.964 28.952 236.496 29.216 L 236.496 29.216 L 236.496 29.216 Q 236.028 29.48 235.404 29.48 L 235.404 29.48 L 235.404 29.48 Q 234.132 29.48 233.604 28.496 L 233.604 28.496 L 228.444 18.848 L 228.444 28.496 L 228.444 28.496 Q 228.444 28.952 227.976 29.216 L 227.976 29.216 L 227.976 29.216 Q 227.508 29.48 226.884 29.48 L 226.884 29.48 L 226.884 29.48 Q 226.236 29.48 225.78 29.216 L 225.78 29.216 L 225.78 29.216 Q 225.324 28.952 225.324 28.496 Z " fill-rule="evenodd" fill="rgb(0,0,0)"/></g></svg>