<?xml version="1.0" standalone="no"?><!-- Generator: Gravit.io --><svg xmlns="http://www.w3.org/2000/svg" xmlns:xlink="http://www.w3.org/1999/xlink" style="isolation:isolate" viewBox="0 0 400 128" width="400" height="128"><defs><clipPath id="_clipPath_aipaXwwkn8lwpAqsAoBGFpUk4MeaAr7w"><rect width="400" height="128"/></clipPath></defs><g clip-path="url(#_clipPath_aipaXwwkn8lwpAqsAoBGFpUk4MeaAr7w)"><path d=" M 193.209 85.103 L 204.498 85.103 L 179.882 30.227 L 168.593 30.227 L 143.978 85.103 L 155.188 85.103 L 159.892 74.755 L 188.584 74.755 L 193.209 85.103 Z  M 184.429 65.112 L 164.046 65.112 L 174.238 41.751 L 184.429 65.112 Z  M 226.369 54.451 C 232.406 54.451 237.58 58.998 237.58 65.739 C 237.58 72.716 232.406 77.106 226.369 77.106 C 220.255 77.106 215.394 72.481 215.394 65.739 C 215.394 58.762 220.255 54.451 226.369 54.451 Z  M 238.207 30.306 L 238.207 51.707 C 235.933 47.709 229.583 45.514 225.507 45.514 C 214.218 45.514 205.83 52.413 205.83 65.739 C 205.83 78.439 214.375 85.965 225.742 85.965 C 230.446 85.965 235.228 84.397 238.207 79.772 L 238.834 85.103 L 247.771 85.103 L 247.771 30.306 L 238.207 30.306 Z  M 291.357 85.103 L 291.357 64.407 C 291.357 59.311 294.572 54.843 299.746 54.843 C 304.92 54.843 307.036 59.154 307.036 64.25 L 307.036 85.103 L 316.6 85.103 L 316.6 64.25 C 316.6 52.648 311.191 45.906 300.216 45.906 C 295.199 45.906 290.73 47.474 287.281 52.961 C 285.086 47.631 280.461 45.749 275.836 45.749 C 272.151 45.749 267.683 47.16 265.644 51.08 L 264.939 46.376 L 256.08 46.376 L 256.08 85.103 L 265.644 85.103 L 265.644 64.407 C 265.644 59.311 268.702 54.686 273.876 54.686 C 279.128 54.686 281.793 59.311 281.793 64.407 L 281.793 85.103 L 291.357 85.103 Z  M 335.885 46.298 L 335.885 85.103 L 326.321 85.103 L 326.321 46.298 L 335.885 46.298 Z  M 325.459 35.558 C 325.459 43.005 336.747 43.005 336.747 35.558 C 336.747 28.111 325.459 28.111 325.459 35.558 Z  M 382.529 85.103 L 382.529 64.799 C 382.529 52.648 375.239 45.827 366.145 45.827 C 361.284 45.827 357.365 47.787 353.445 51.629 L 352.818 46.376 L 344.273 46.376 L 344.273 85.103 L 353.759 85.103 L 353.759 65.347 C 353.759 59.468 357.757 54.529 363.636 54.529 C 369.751 54.529 372.965 58.998 372.965 64.877 L 372.965 85.103 L 382.529 85.103 Z  M 123.282 85.103 L 127.515 85.103 L 143.743 46.376 L 139.509 46.376 L 125.398 80.634 L 111.288 46.376 L 107.054 46.376 L 123.282 85.103 Z " fill-rule="evenodd" fill="rgb(30,30,32)"/><path d=" M 5.492 38.442 C 5.492 25.307 16.156 14.643 29.291 14.643 C 42.426 14.643 53.091 25.307 53.091 38.442 C 53.091 51.578 42.426 62.242 29.291 62.242 C 16.156 62.242 5.492 51.578 5.492 38.442 Z " fill="rgb(18,204,198)"/><path d=" M 50.039 75.057 C 50.039 64.279 58.789 55.529 69.567 55.529 C 80.345 55.529 89.095 64.279 89.095 75.057 C 89.095 85.834 80.345 94.584 69.567 94.584 C 58.789 94.584 50.039 85.834 50.039 75.057 Z " fill="rgb(252,181,54)"/><path d=" M 15.866 91.806 C 15.866 84.397 21.882 78.381 29.291 78.381 C 36.701 78.381 42.717 84.397 42.717 91.806 C 42.717 99.216 36.701 105.231 29.291 105.231 C 21.882 105.231 15.866 99.216 15.866 91.806 Z " fill="rgb(253,45,122)"/></g></svg>