<?xml version="1.0" standalone="no"?><!-- Generator: Gravit.io --><svg xmlns="http://www.w3.org/2000/svg" xmlns:xlink="http://www.w3.org/1999/xlink" style="isolation:isolate" viewBox="0 0 128 128" width="128" height="128"><defs><clipPath id="_clipPath_oQghXGaodvSmXi03QH952Bh8NvHmBhCd"><rect width="128" height="128"/></clipPath></defs><g clip-path="url(#_clipPath_oQghXGaodvSmXi03QH952Bh8NvHmBhCd)"><rect width="128" height="128" style="fill:rgb(32,156,238)"/><path d=" M 38.712 51.147 C 38.712 37.19 50.043 25.859 64 25.859 C 77.957 25.859 89.288 37.19 89.288 51.147 C 89.288 65.104 77.957 76.435 64 76.435 C 50.043 76.435 38.712 65.104 38.712 51.147 Z  M 80.72 75.915 C 89.807 79.309 95.868 86.125 95.868 97.299 Q 95.868 100.715 88.602 102.141 L 39.398 102.141 Q 32.132 100.715 32.132 97.299 C 32.132 86.125 38.193 79.309 47.28 75.915 C 51.939 79.417 57.729 81.497 64 81.497 C 70.271 81.497 76.061 79.417 80.72 75.915 Z " fill-rule="evenodd" fill="rgb(235,235,235)"/></g></svg>