<?xml version="1.0" standalone="no"?><!-- Generator: Gravit.io --><svg xmlns="http://www.w3.org/2000/svg" xmlns:xlink="http://www.w3.org/1999/xlink" style="isolation:isolate" viewBox="0 0 128 128" width="128" height="128"><defs><clipPath id="_clipPath_2nuPhamfxVsefaS1wUdHOJmBlIHMz5S9"><rect width="128" height="128"/></clipPath></defs><g clip-path="url(#_clipPath_2nuPhamfxVsefaS1wUdHOJmBlIHMz5S9)"><clipPath id="_clipPath_oecn5nqONWZ8L5gvW8YhTZIgD6PqFZ7f"><rect x="0" y="0" width="128" height="128" transform="matrix(1,0,0,1,0,0)" fill="rgb(255,255,255)"/></clipPath><g clip-path="url(#_clipPath_oecn5nqONWZ8L5gvW8YhTZIgD6PqFZ7f)"><g id="Group"><rect x="0" y="0" width="128" height="128" transform="matrix(1,0,0,1,0,0)" fill="rgb(40,40,60)"/><path d=" M 91.311 83.19 C 94.204 86.785 95.868 91.444 95.868 97.299 Q 95.868 100.715 88.602 102.141 L 84.624 102.141 C 85.851 100.705 86.51 98.902 86.6 97.1 C 86.6 95 85.7 93 84.3 91.5 C 84.225 91.43 84.133 91.363 84.026 91.3 L 85.9 91.3 L 85.9 87 C 85.9 86.9 85.9 86.7 85.9 86.6 C 85.9 86.3 86 86.1 86.1 85.8 L 87.8 85 C 89.014 84.514 90.192 83.918 91.311 83.19 Z  M 72.983 79.997 L 72.983 79.997 C 70.168 80.974 67.145 81.497 64 81.497 C 57.729 81.497 51.939 79.417 47.28 75.915 C 38.193 79.309 32.132 86.125 32.132 97.299 Q 32.132 100.715 39.398 102.141 L 72.774 102.141 C 71.549 100.72 70.9 98.991 70.9 97.1 C 70.9 95 71.7 93 73.2 91.5 C 73.27 91.43 73.357 91.363 73.46 91.3 L 71.6 91.3 L 71.6 87.1 C 71.447 84.657 71.936 82.215 72.983 79.997 Z  M 87.649 60.108 C 88.709 57.323 89.288 54.302 89.288 51.147 C 89.288 37.19 77.957 25.859 64 25.859 C 50.043 25.859 38.712 37.19 38.712 51.147 L 38.712 51.147 C 38.712 65.104 50.043 76.435 64 76.435 C 64.327 76.435 64.652 76.429 64.976 76.418 C 64.772 76.301 64.581 76.158 64.4 76 C 63.7 75.2 63.3 74.2 63.2 73.2 C 63.2 68.8 65.3 64.6 68.9 62.1 C 72.2 59.9 76.1 58.7 80.1 58.9 C 82.69 58.767 85.236 59.208 87.649 60.108 Z " fill-rule="evenodd" fill="rgb(235,235,235)"/><path d=" M 73.68 73.147 C 73.728 70.123 76.896 68.395 79.968 68.395 C 82.944 68.395 86.352 69.259 86.352 72.955 C 86.352 75.835 83.424 76.219 80.88 77.563 C 78.336 78.907 75.648 80.395 75.6 86.971 L 75.6 87.259 L 81.936 87.259 L 81.936 87.019 C 81.936 84.763 82.464 83.419 83.76 82.555 C 86.544 80.683 92.928 79.963 92.928 73.003 C 93.072 65.803 86.832 62.875 80.064 62.875 C 73.296 62.875 67.296 66.043 67.248 73.147 L 73.68 73.147 Z  M 74.88 97.067 C 74.88 102.107 82.56 102.107 82.56 97.067 C 82.56 91.979 74.88 91.979 74.88 97.067 Z " fill-rule="evenodd" fill="rgb(255,255,255)"/></g></g></g></svg>