<?xml version="1.0" standalone="no"?><!-- Generator: Gravit.io --><svg xmlns="http://www.w3.org/2000/svg" xmlns:xlink="http://www.w3.org/1999/xlink" style="isolation:isolate" viewBox="0 0 128 128" width="128" height="128"><defs><clipPath id="_clipPath_A14Sel9FzRb9ynUmqRjjHimOUU8GclDO"><rect width="128" height="128"/></clipPath></defs><g clip-path="url(#_clipPath_A14Sel9FzRb9ynUmqRjjHimOUU8GclDO)"><clipPath id="_clipPath_ZMQhaN7NmjOAImTO0UsARR0EVbPwjR88"><rect x="0" y="0" width="128" height="128" transform="matrix(1,0,0,1,0,0)" fill="rgb(255,255,255)"/></clipPath><g clip-path="url(#_clipPath_ZMQhaN7NmjOAImTO0UsARR0EVbPwjR88)"><g id="Group"><rect x="0" y="0" width="128" height="128" transform="matrix(1,0,0,1,0,0)" fill="rgb(255,56,56)"/><path d=" M 87.885 60.445 L 91.67 68.936 L 100.916 69.912 C 101.44 69.967 101.548 70.299 101.156 70.652 L 94.25 76.876 L 96.179 85.97 C 96.288 86.486 96.006 86.691 95.549 86.428 L 87.496 81.783 L 79.442 86.428 C 78.986 86.691 78.704 86.486 78.813 85.97 L 80.742 76.876 L 73.836 70.652 C 73.444 70.299 73.552 69.967 74.076 69.912 L 83.322 68.936 L 87.107 60.445 C 87.322 59.963 87.67 59.963 87.885 60.445 Z  M 75.837 78.857 L 75.837 78.857 C 72.244 80.55 68.231 81.497 64 81.497 C 57.729 81.497 51.939 79.417 47.28 75.915 C 38.193 79.309 32.132 86.125 32.132 97.299 Q 32.132 100.715 39.398 102.141 L 88.602 102.141 Q 95.868 100.715 95.868 97.299 C 95.868 95.302 95.674 93.445 95.305 91.721 L 88.433 87.758 C 87.955 87.482 87.179 87.482 86.701 87.758 L 75.633 94.141 C 73.975 95.098 72.95 94.354 73.348 92.481 L 75.999 79.982 C 76.071 79.639 76.001 79.216 75.837 78.857 Z  M 89.179 53.512 C 89.251 52.733 89.288 51.944 89.288 51.147 C 89.288 37.19 77.957 25.859 64 25.859 C 50.043 25.859 38.712 37.19 38.712 51.147 L 38.712 51.147 C 38.712 65.104 50.043 76.435 64 76.435 C 66.774 76.435 69.444 75.987 71.942 75.161 L 65.972 69.781 C 64.55 68.499 64.941 67.295 66.845 67.094 L 79.551 65.753 C 80.1 65.695 80.728 65.239 80.953 64.735 L 86.155 53.065 C 86.934 51.316 88.2 51.316 88.98 53.065 L 89.179 53.512 Z " fill-rule="evenodd" fill="rgb(235,235,235)"/></g></g></g></svg>