<?xml version="1.0" standalone="no"?><!-- Generator: Gravit.io --><svg xmlns="http://www.w3.org/2000/svg" xmlns:xlink="http://www.w3.org/1999/xlink" style="isolation:isolate" viewBox="0 0 1300 256" width="1300" height="256"><defs><clipPath id="_clipPath_TCRHeKJH7IHiEKy7MG6qVPy843vJwVnE"><rect width="1300" height="256"/></clipPath></defs><g clip-path="url(#_clipPath_TCRHeKJH7IHiEKy7MG6qVPy843vJwVnE)"><clipPath id="_clipPath_R9Emn52pR7ZlmBoha0mtEeWFcQtLzauU"><rect x="0" y="0" width="256" height="256" transform="matrix(1,0,0,1,0,0)" fill="rgb(255,255,255)"/></clipPath><g clip-path="url(#_clipPath_R9Emn52pR7ZlmBoha0mtEeWFcQtLzauU)"><g id="Group"><g id="Group"><path d=" M 7.946 40.103 L 60.827 40.103 L 122.283 215.897 L 65.115 215.897 L 7.946 40.103 Z " fill="rgb(0,0,0)"/><path d=" M 100.788 110.622 L 129.571 192.612 L 145.594 144.536 L 117.283 67.554" fill="rgb(0,0,0)"/><path d=" M 179.452 40.103 L 248.054 215.897 L 248.054 215.897 L 190.885 215.897 L 181.329 189.776 L 145.004 189.776 L 156.438 154.44 L 168.338 154.44 L 126.571 40.103" fill="rgb(0,0,0)"/></g></g></g><g style="mix-blend-mode:add;"><path d=" M 347.178 166.254 L 347.178 166.254 L 347.178 166.254 Q 347.178 165.871 347.433 164.849 L 347.433 164.849 L 371.19 86.936 L 371.19 86.936 Q 372.212 83.743 375.852 82.019 L 375.852 82.019 L 375.852 82.019 Q 379.492 80.294 384.218 80.294 L 384.218 80.294 L 384.218 80.294 Q 388.944 80.294 392.584 82.019 L 392.584 82.019 L 392.584 82.019 Q 396.224 83.743 397.246 86.936 L 397.246 86.936 L 421.131 164.849 L 421.131 164.849 Q 421.386 165.871 421.386 166.254 L 421.386 166.254 L 421.386 166.254 Q 421.386 169.575 417.235 172.001 L 417.235 172.001 L 417.235 172.001 Q 413.084 174.428 408.614 174.428 L 408.614 174.428 L 408.614 174.428 Q 403.122 174.428 402.1 170.724 L 402.1 170.724 L 397.757 154.759 L 370.807 154.759 L 366.464 170.724 L 366.464 170.724 Q 365.443 174.428 359.95 174.428 L 359.95 174.428 L 359.95 174.428 Q 355.48 174.428 351.329 172.001 L 351.329 172.001 L 351.329 172.001 Q 347.178 169.575 347.178 166.254 Z  M 384.218 105.201 L 374.894 139.431 L 393.542 139.431 L 384.218 105.201 Z  M 428.794 168.425 L 428.794 168.425 L 428.794 87.064 L 428.794 87.064 Q 428.794 84.637 431.221 82.849 L 431.221 82.849 L 431.221 82.849 Q 433.648 81.061 437.48 81.061 L 437.48 81.061 L 460.087 81.061 L 460.087 81.061 Q 474.392 81.061 482.95 88.341 L 482.95 88.341 L 482.95 88.341 Q 491.508 95.622 491.508 111.204 L 491.508 111.204 L 491.508 144.285 L 491.508 144.285 Q 491.508 159.868 482.95 167.148 L 482.95 167.148 L 482.95 167.148 Q 474.392 174.428 460.087 174.428 L 460.087 174.428 L 437.48 174.428 L 437.48 174.428 Q 433.648 174.428 431.221 172.64 L 431.221 172.64 L 431.221 172.64 Q 428.794 170.852 428.794 168.425 Z  M 448.72 98.432 L 448.72 157.058 L 460.087 157.058 L 460.087 157.058 Q 471.583 157.058 471.583 144.285 L 471.583 144.285 L 471.583 111.204 L 471.583 111.204 Q 471.583 98.432 460.087 98.432 L 460.087 98.432 L 448.72 98.432 Z  M 504.153 168.297 L 504.153 168.297 L 504.153 91.023 L 504.153 91.023 Q 504.153 85.914 507.026 83.488 L 507.026 83.488 L 507.026 83.488 Q 509.9 81.061 514.115 81.061 L 514.115 81.061 L 514.115 81.061 Q 519.863 81.061 522.864 82.785 L 522.864 82.785 L 522.864 82.785 Q 525.866 84.509 529.57 91.023 L 529.57 91.023 L 542.726 114.014 L 555.881 91.023 L 555.881 91.023 Q 559.585 84.509 562.587 82.785 L 562.587 82.785 L 562.587 82.785 Q 565.589 81.061 571.336 81.061 L 571.336 81.061 L 571.336 81.061 Q 575.551 81.061 578.425 83.488 L 578.425 83.488 L 578.425 83.488 Q 581.299 85.914 581.299 91.023 L 581.299 91.023 L 581.299 168.297 L 581.299 168.297 Q 581.299 171.235 578.361 172.832 L 578.361 172.832 L 578.361 172.832 Q 575.423 174.428 571.336 174.428 L 571.336 174.428 L 571.336 174.428 Q 567.249 174.428 564.311 172.832 L 564.311 172.832 L 564.311 172.832 Q 561.374 171.235 561.374 168.297 L 561.374 168.297 L 561.374 120.4 L 549.112 141.347 L 549.112 141.347 Q 546.941 145.051 542.47 145.051 L 542.47 145.051 L 542.47 145.051 Q 538.128 145.051 536.212 141.347 L 536.212 141.347 L 524.078 119.123 L 524.078 168.297 L 524.078 168.297 Q 524.078 171.235 521.14 172.832 L 521.14 172.832 L 521.14 172.832 Q 518.202 174.428 514.115 174.428 L 514.115 174.428 L 514.115 174.428 Q 510.028 174.428 507.09 172.832 L 507.09 172.832 L 507.09 172.832 Q 504.153 171.235 504.153 168.297 Z  M 595.093 168.297 L 595.093 168.297 L 595.093 87.064 L 595.093 87.064 Q 595.093 84.126 598.031 82.594 L 598.031 82.594 L 598.031 82.594 Q 600.969 81.061 605.056 81.061 L 605.056 81.061 L 605.056 81.061 Q 609.143 81.061 612.081 82.594 L 612.081 82.594 L 612.081 82.594 Q 615.018 84.126 615.018 87.064 L 615.018 87.064 L 615.018 168.297 L 615.018 168.297 Q 615.018 171.235 612.081 172.832 L 612.081 172.832 L 612.081 172.832 Q 609.143 174.428 605.056 174.428 L 605.056 174.428 L 605.056 174.428 Q 600.969 174.428 598.031 172.832 L 598.031 172.832 L 598.031 172.832 Q 595.093 171.235 595.093 168.297 Z  M 628.813 168.297 L 628.813 168.297 L 628.813 87.192 L 628.813 87.192 Q 628.813 84.254 631.75 82.657 L 631.75 82.657 L 631.75 82.657 Q 634.688 81.061 638.775 81.061 L 638.775 81.061 L 638.775 81.061 Q 644.523 81.061 647.269 82.721 L 647.269 82.721 L 647.269 82.721 Q 650.015 84.382 653.464 91.023 L 653.464 91.023 L 674.155 130.491 L 674.155 87.064 L 674.155 87.064 Q 674.155 84.126 677.093 82.594 L 677.093 82.594 L 677.093 82.594 Q 680.031 81.061 684.118 81.061 L 684.118 81.061 L 684.118 81.061 Q 688.205 81.061 691.143 82.594 L 691.143 82.594 L 691.143 82.594 Q 694.081 84.126 694.081 87.064 L 694.081 87.064 L 694.081 168.297 L 694.081 168.297 Q 694.081 171.235 691.143 172.832 L 691.143 172.832 L 691.143 172.832 Q 688.205 174.428 684.118 174.428 L 684.118 174.428 L 684.118 174.428 Q 675.943 174.428 673.006 169.064 L 673.006 169.064 L 648.738 124.871 L 648.738 168.297 L 648.738 168.297 Q 648.738 171.235 645.8 172.832 L 645.8 172.832 L 645.8 172.832 Q 642.863 174.428 638.775 174.428 L 638.775 174.428 L 638.775 174.428 Q 634.688 174.428 631.75 172.832 L 631.75 172.832 L 631.75 172.832 Q 628.813 171.235 628.813 168.297 Z  M 707.875 168.297 L 707.875 168.297 L 707.875 87.064 L 707.875 87.064 Q 707.875 84.126 710.813 82.594 L 710.813 82.594 L 710.813 82.594 Q 713.75 81.061 717.837 81.061 L 717.837 81.061 L 717.837 81.061 Q 721.925 81.061 724.862 82.594 L 724.862 82.594 L 724.862 82.594 Q 727.8 84.126 727.8 87.064 L 727.8 87.064 L 727.8 168.297 L 727.8 168.297 Q 727.8 171.235 724.862 172.832 L 724.862 172.832 L 724.862 172.832 Q 721.925 174.428 717.837 174.428 L 717.837 174.428 L 717.837 174.428 Q 713.75 174.428 710.813 172.832 L 710.813 172.832 L 710.813 172.832 Q 707.875 171.235 707.875 168.297 Z  M 737.124 159.101 L 737.124 159.101 L 737.124 159.101 Q 737.124 155.525 739.742 151.949 L 739.742 151.949 L 739.742 151.949 Q 742.361 148.372 745.809 148.372 L 745.809 148.372 L 745.809 148.372 Q 747.725 148.372 750.088 149.841 L 750.088 149.841 L 750.088 149.841 Q 752.451 151.31 754.431 153.098 L 754.431 153.098 L 754.431 153.098 Q 756.411 154.886 759.987 156.355 L 759.987 156.355 L 759.987 156.355 Q 763.563 157.824 767.523 157.824 L 767.523 157.824 L 767.523 157.824 Q 772.504 157.824 776.208 155.716 L 776.208 155.716 L 776.208 155.716 Q 779.912 153.609 779.912 149.394 L 779.912 149.394 L 779.912 149.394 Q 779.912 145.179 775.761 141.986 L 775.761 141.986 L 775.761 141.986 Q 771.61 138.793 765.671 136.174 L 765.671 136.174 L 765.671 136.174 Q 759.731 133.556 753.728 130.299 L 753.728 130.299 L 753.728 130.299 Q 747.725 127.042 743.574 121.039 L 743.574 121.039 L 743.574 121.039 Q 739.423 115.036 739.423 106.734 L 739.423 106.734 L 739.423 106.734 Q 739.423 93.45 749.003 86.872 L 749.003 86.872 L 749.003 86.872 Q 758.582 80.294 772.121 80.294 L 772.121 80.294 L 772.121 80.294 Q 775.442 80.294 779.082 80.678 L 779.082 80.678 L 779.082 80.678 Q 782.722 81.061 787.256 82.147 L 787.256 82.147 L 787.256 82.147 Q 791.791 83.232 794.664 85.659 L 794.664 85.659 L 794.664 85.659 Q 797.538 88.086 797.538 91.534 L 797.538 91.534 L 797.538 91.534 Q 797.538 94.855 795.431 98.432 L 795.431 98.432 L 795.431 98.432 Q 793.323 102.008 789.619 102.008 L 789.619 102.008 L 789.619 102.008 Q 788.087 102.008 783.105 99.581 L 783.105 99.581 L 783.105 99.581 Q 778.124 97.154 772.121 97.154 L 772.121 97.154 L 772.121 97.154 Q 765.735 97.154 762.541 99.389 L 762.541 99.389 L 762.541 99.389 Q 759.348 101.625 759.348 104.818 L 759.348 104.818 L 759.348 104.818 Q 759.348 107.755 762.35 110.182 L 762.35 110.182 L 762.35 110.182 Q 765.351 112.609 769.822 114.333 L 769.822 114.333 L 769.822 114.333 Q 774.292 116.058 779.593 118.804 L 779.593 118.804 L 779.593 118.804 Q 784.893 121.55 789.364 124.807 L 789.364 124.807 L 789.364 124.807 Q 793.834 128.064 796.836 133.939 L 796.836 133.939 L 796.836 133.939 Q 799.837 139.815 799.837 147.35 L 799.837 147.35 L 799.837 147.35 Q 799.837 160.762 791.024 168.234 L 791.024 168.234 L 791.024 168.234 Q 782.211 175.706 767.906 175.706 L 767.906 175.706 L 767.906 175.706 Q 755.517 175.706 746.32 170.596 L 746.32 170.596 L 746.32 170.596 Q 737.124 165.487 737.124 159.101 Z  M 803.797 89.874 L 803.797 89.874 L 803.797 89.874 Q 803.797 86.298 805.33 83.679 L 805.33 83.679 L 805.33 83.679 Q 806.862 81.061 809.8 81.061 L 809.8 81.061 L 864.977 81.061 L 864.977 81.061 Q 867.915 81.061 869.448 83.679 L 869.448 83.679 L 869.448 83.679 Q 870.98 86.298 870.98 89.874 L 870.98 89.874 L 870.98 89.874 Q 870.98 93.706 869.384 96.324 L 869.384 96.324 L 869.384 96.324 Q 867.787 98.942 864.977 98.942 L 864.977 98.942 L 847.351 98.942 L 847.351 168.297 L 847.351 168.297 Q 847.351 171.235 844.414 172.832 L 844.414 172.832 L 844.414 172.832 Q 841.476 174.428 837.389 174.428 L 837.389 174.428 L 837.389 174.428 Q 833.301 174.428 830.364 172.832 L 830.364 172.832 L 830.364 172.832 Q 827.426 171.235 827.426 168.297 L 827.426 168.297 L 827.426 98.942 L 809.8 98.942 L 809.8 98.942 Q 806.99 98.942 805.393 96.324 L 805.393 96.324 L 805.393 96.324 Q 803.797 93.706 803.797 89.874 Z  M 878.899 168.297 L 878.899 168.297 L 878.899 87.064 L 878.899 87.064 Q 878.899 84.637 880.624 82.849 L 880.624 82.849 L 880.624 82.849 Q 882.348 81.061 885.03 81.061 L 885.03 81.061 L 911.469 81.061 L 911.469 81.061 Q 942.89 81.061 942.89 108.394 L 942.89 108.394 L 942.89 108.394 Q 942.89 128.319 927.435 134.322 L 927.435 134.322 L 943.018 162.55 L 943.018 162.55 Q 943.656 163.444 943.656 164.849 L 943.656 164.849 L 943.656 164.849 Q 943.656 168.553 939.633 171.874 L 939.633 171.874 L 939.633 171.874 Q 935.61 175.195 931.139 175.195 L 931.139 175.195 L 931.139 175.195 Q 926.669 175.195 924.753 171.491 L 924.753 171.491 L 907.255 137.516 L 898.825 137.516 L 898.825 168.297 L 898.825 168.297 Q 898.825 171.235 895.887 172.832 L 895.887 172.832 L 895.887 172.832 Q 892.949 174.428 888.862 174.428 L 888.862 174.428 L 888.862 174.428 Q 884.775 174.428 881.837 172.832 L 881.837 172.832 L 881.837 172.832 Q 878.899 171.235 878.899 168.297 Z  M 898.825 98.432 L 898.825 122.188 L 911.469 122.188 L 911.469 122.188 Q 917.089 122.188 920.027 119.442 L 920.027 119.442 L 920.027 119.442 Q 922.965 116.696 922.965 110.31 L 922.965 110.31 L 922.965 110.31 Q 922.965 103.924 920.027 101.178 L 920.027 101.178 L 920.027 101.178 Q 917.089 98.432 911.469 98.432 L 911.469 98.432 L 898.825 98.432 Z  M 947.105 166.254 L 947.105 166.254 L 947.105 166.254 Q 947.105 165.871 947.36 164.849 L 947.36 164.849 L 971.117 86.936 L 971.117 86.936 Q 972.139 83.743 975.779 82.019 L 975.779 82.019 L 975.779 82.019 Q 979.419 80.294 984.145 80.294 L 984.145 80.294 L 984.145 80.294 Q 988.871 80.294 992.511 82.019 L 992.511 82.019 L 992.511 82.019 Q 996.152 83.743 997.173 86.936 L 997.173 86.936 L 1021.058 164.849 L 1021.058 164.849 Q 1021.313 165.871 1021.313 166.254 L 1021.313 166.254 L 1021.313 166.254 Q 1021.313 169.575 1017.162 172.001 L 1017.162 172.001 L 1017.162 172.001 Q 1013.011 174.428 1008.541 174.428 L 1008.541 174.428 L 1008.541 174.428 Q 1003.049 174.428 1002.027 170.724 L 1002.027 170.724 L 997.684 154.759 L 970.734 154.759 L 966.391 170.724 L 966.391 170.724 Q 965.37 174.428 959.877 174.428 L 959.877 174.428 L 959.877 174.428 Q 955.407 174.428 951.256 172.001 L 951.256 172.001 L 951.256 172.001 Q 947.105 169.575 947.105 166.254 Z  M 984.145 105.201 L 974.821 139.431 L 993.469 139.431 L 984.145 105.201 Z  M 1022.846 89.874 L 1022.846 89.874 L 1022.846 89.874 Q 1022.846 86.298 1024.379 83.679 L 1024.379 83.679 L 1024.379 83.679 Q 1025.912 81.061 1028.849 81.061 L 1028.849 81.061 L 1084.027 81.061 L 1084.027 81.061 Q 1086.964 81.061 1088.497 83.679 L 1088.497 83.679 L 1088.497 83.679 Q 1090.03 86.298 1090.03 89.874 L 1090.03 89.874 L 1090.03 89.874 Q 1090.03 93.706 1088.433 96.324 L 1088.433 96.324 L 1088.433 96.324 Q 1086.837 98.942 1084.027 98.942 L 1084.027 98.942 L 1066.401 98.942 L 1066.401 168.297 L 1066.401 168.297 Q 1066.401 171.235 1063.463 172.832 L 1063.463 172.832 L 1063.463 172.832 Q 1060.525 174.428 1056.438 174.428 L 1056.438 174.428 L 1056.438 174.428 Q 1052.351 174.428 1049.413 172.832 L 1049.413 172.832 L 1049.413 172.832 Q 1046.475 171.235 1046.475 168.297 L 1046.475 168.297 L 1046.475 98.942 L 1028.849 98.942 L 1028.849 98.942 Q 1026.039 98.942 1024.443 96.324 L 1024.443 96.324 L 1024.443 96.324 Q 1022.846 93.706 1022.846 89.874 Z  M 1097.949 168.297 L 1097.949 168.297 L 1097.949 87.064 L 1097.949 87.064 Q 1097.949 84.126 1100.887 82.594 L 1100.887 82.594 L 1100.887 82.594 Q 1103.824 81.061 1107.911 81.061 L 1107.911 81.061 L 1107.911 81.061 Q 1111.999 81.061 1114.936 82.594 L 1114.936 82.594 L 1114.936 82.594 Q 1117.874 84.126 1117.874 87.064 L 1117.874 87.064 L 1117.874 168.297 L 1117.874 168.297 Q 1117.874 171.235 1114.936 172.832 L 1114.936 172.832 L 1114.936 172.832 Q 1111.999 174.428 1107.911 174.428 L 1107.911 174.428 L 1107.911 174.428 Q 1103.824 174.428 1100.887 172.832 L 1100.887 172.832 L 1100.887 172.832 Q 1097.949 171.235 1097.949 168.297 Z  M 1130.647 145.051 L 1130.647 145.051 L 1130.647 111.204 L 1130.647 111.204 Q 1130.647 95.622 1139.204 88.341 L 1139.204 88.341 L 1139.204 88.341 Q 1147.762 81.061 1161.939 81.061 L 1161.939 81.061 L 1161.939 81.061 Q 1176.245 81.061 1184.802 88.341 L 1184.802 88.341 L 1184.802 88.341 Q 1193.36 95.622 1193.36 111.204 L 1193.36 111.204 L 1193.36 145.051 L 1193.36 145.051 Q 1193.36 160.634 1184.802 167.914 L 1184.802 167.914 L 1184.802 167.914 Q 1176.245 175.195 1161.939 175.195 L 1161.939 175.195 L 1161.939 175.195 Q 1147.762 175.195 1139.204 167.914 L 1139.204 167.914 L 1139.204 167.914 Q 1130.647 160.634 1130.647 145.051 Z  M 1150.572 111.204 L 1150.572 145.051 L 1150.572 145.051 Q 1150.572 157.824 1161.939 157.824 L 1161.939 157.824 L 1161.939 157.824 Q 1173.435 157.824 1173.435 145.051 L 1173.435 145.051 L 1173.435 111.204 L 1173.435 111.204 Q 1173.435 98.432 1161.939 98.432 L 1161.939 98.432 L 1161.939 98.432 Q 1150.572 98.432 1150.572 111.204 L 1150.572 111.204 Z  M 1206.132 168.297 L 1206.132 168.297 L 1206.132 87.192 L 1206.132 87.192 Q 1206.132 84.254 1209.07 82.657 L 1209.07 82.657 L 1209.07 82.657 Q 1212.008 81.061 1216.095 81.061 L 1216.095 81.061 L 1216.095 81.061 Q 1221.843 81.061 1224.589 82.721 L 1224.589 82.721 L 1224.589 82.721 Q 1227.335 84.382 1230.783 91.023 L 1230.783 91.023 L 1251.475 130.491 L 1251.475 87.064 L 1251.475 87.064 Q 1251.475 84.126 1254.413 82.594 L 1254.413 82.594 L 1254.413 82.594 Q 1257.35 81.061 1261.438 81.061 L 1261.438 81.061 L 1261.438 81.061 Q 1265.525 81.061 1268.463 82.594 L 1268.463 82.594 L 1268.463 82.594 Q 1271.4 84.126 1271.4 87.064 L 1271.4 87.064 L 1271.4 168.297 L 1271.4 168.297 Q 1271.4 171.235 1268.463 172.832 L 1268.463 172.832 L 1268.463 172.832 Q 1265.525 174.428 1261.438 174.428 L 1261.438 174.428 L 1261.438 174.428 Q 1253.263 174.428 1250.325 169.064 L 1250.325 169.064 L 1226.058 124.871 L 1226.058 168.297 L 1226.058 168.297 Q 1226.058 171.235 1223.12 172.832 L 1223.12 172.832 L 1223.12 172.832 Q 1220.182 174.428 1216.095 174.428 L 1216.095 174.428 L 1216.095 174.428 Q 1212.008 174.428 1209.07 172.832 L 1209.07 172.832 L 1209.07 172.832 Q 1206.132 171.235 1206.132 168.297 Z " fill-rule="evenodd" fill="rgb(0,0,0)"/></g></g></svg>