<?xml version="1.0" standalone="no"?><!-- Generator: Gravit.io --><svg xmlns="http://www.w3.org/2000/svg" xmlns:xlink="http://www.w3.org/1999/xlink" style="isolation:isolate" viewBox="0 0 256 256" width="256" height="256"><defs><clipPath id="_clipPath_6Rp6AmXrfJKpS7762SdjEmkAAEZr5vIV"><rect width="256" height="256"/></clipPath></defs><g clip-path="url(#_clipPath_6Rp6AmXrfJKpS7762SdjEmkAAEZr5vIV)"><g id="Group"><path d=" M 126.573 40.103 L 179.382 40.103 L 122.291 215.66 L 65.199 215.66 L 126.573 40.103 Z " fill="rgb(253,45,122)"/><path d=" M 177.955 40.103 L 179.382 40.103 L 122.291 215.66 L 116.582 215.66 L 177.955 40.103 Z " fill="rgb(49,37,41)" fill-opacity="0.31"/><g opacity="0.29"><path d=" M 126.573 40.103 L 179.382 40.103 L 149.409 132.877 L 126.573 40.103 L 126.573 40.103 Z " fill="rgb(0,0,0)"/></g><g opacity="0.29"><path d=" M 93.745 134.304 L 122.291 215.66 L 122.291 215.66 L 100.882 115.75 L 93.745 134.304 Z " fill="rgb(0,0,0)"/></g><path d=" M 181.257 189.575 L 137.991 189.575 L 149.409 154.287 L 168.284 154.113 L 126.573 40.103 L 179.382 40.103 L 247.892 215.66 L 235.047 221.369 L 190.801 215.66 L 181.257 189.575 Z " fill="rgb(252,181,54)"/><path d=" M 8.108 40.103 L 60.917 40.103 L 122.291 215.66 L 65.199 215.66 L 8.108 40.103 Z " fill="rgb(18,204,198)"/><g opacity="0.29"><path d=" M 181.257 189.575 L 206.501 189.575 L 190.801 215.66 L 181.257 189.575 L 181.257 189.575 Z " fill="rgb(0,0,0)"/></g><path d=" M 206.501 189.575 L 203.646 194.251 L 137.991 189.575 L 181.257 189.575 L 206.501 189.575 Z " fill="rgb(204,140,30)"/><g opacity="0.29"><path d=" M 137.991 189.575 L 206.501 189.575 L 179.382 154.113 L 149.409 154.287 L 137.991 189.575 Z " fill="rgb(255,255,255)"/></g><g opacity="0.29"><path d=" M 247.892 215.66 L 206.501 108.613 L 179.382 40.103 L 235.047 221.369 L 247.892 215.66 Z " fill="rgb(155,61,61)"/></g><g opacity="0.29"><path d=" M 122.291 215.66 L 53.781 45.813 L 60.917 40.103 L 60.917 40.103 L 122.291 215.66 Z " fill="rgb(255,255,255)"/></g><g opacity="0.29"><path d=" M 8.108 40.103 L 53.781 45.813 L 60.917 40.103 L 60.917 40.103 L 8.108 40.103 Z " fill="rgb(118,47,193)" fill-opacity="0.75"/></g></g></g></svg>