<?xml version="1.0" standalone="no"?><!-- Generator: Gravit.io --><svg xmlns="http://www.w3.org/2000/svg" xmlns:xlink="http://www.w3.org/1999/xlink" style="isolation:isolate" viewBox="0 0 256 256" width="256" height="256"><defs><clipPath id="_clipPath_Wwwo6qEHFugYvpwpbl9Am7PA56qWAbcE"><rect width="256" height="256"/></clipPath></defs><g clip-path="url(#_clipPath_Wwwo6qEHFugYvpwpbl9Am7PA56qWAbcE)"><clipPath id="_clipPath_PAXpjS5tRirPFbb7qnFnv5cHk4b3phVo"><rect x="0" y="0" width="256" height="256" transform="matrix(1,0,0,1,0,0)" fill="rgb(255,255,255)"/></clipPath><g clip-path="url(#_clipPath_PAXpjS5tRirPFbb7qnFnv5cHk4b3phVo)"><g id="Group"><g id="Group"><path d=" M 7.946 40.103 L 60.827 40.103 L 122.283 215.897 L 65.115 215.897 L 7.946 40.103 Z " fill="rgb(0,0,0)"/><path d=" M 179.452 40.103 L 248.054 215.897 L 248.054 215.897 L 190.885 215.897 L 181.329 189.776 L 138.004 189.776 L 149.438 154.44 L 168.338 154.44 L 126.571 40.103" fill="rgb(0,0,0)"/></g></g><path d=" M 115.331 170.593 L 126.571 202.612 L 150.594 129.536 L 122.283 52.554 L 111.107 83.612 C 111.134 83.762 111.129 83.92 111.087 84.077 L 110.458 86.423 C 111.695 87.019 112.767 87.856 113.631 88.86 L 115.736 87.645 C 116.248 87.349 116.904 87.525 117.2 88.037 L 117.965 89.362 C 118.26 89.874 118.085 90.53 117.573 90.826 L 115.467 92.042 C 115.905 93.291 116.094 94.638 115.991 96.008 L 118.338 96.636 C 118.909 96.789 119.248 97.377 119.095 97.948 L 118.699 99.427 C 118.546 99.998 117.958 100.337 117.387 100.184 L 115.041 99.556 C 114.445 100.793 113.608 101.865 112.604 102.728 L 113.819 104.834 C 114.115 105.346 113.939 106.002 113.427 106.297 L 112.102 107.062 C 111.59 107.358 110.934 107.182 110.638 106.67 L 109.423 104.565 C 108.173 105.002 106.826 105.192 105.457 105.089 L 104.828 107.435 C 104.675 108.006 104.087 108.346 103.516 108.193 L 102.371 107.886 L 101.936 109.096 C 102.218 109.424 102.388 109.851 102.388 110.317 L 102.388 117.37 C 103.616 117.602 104.812 117.924 105.969 118.328 L 109.495 112.221 C 110.012 111.326 111.159 111.018 112.054 111.535 L 116.922 114.345 C 117.817 114.863 118.124 116.009 117.607 116.905 L 114.077 123.02 C 115.012 123.828 115.887 124.703 116.694 125.638 L 122.81 122.107 C 123.705 121.59 124.852 121.897 125.369 122.793 L 128.179 127.66 C 128.696 128.556 128.389 129.703 127.494 130.22 L 121.386 133.746 C 121.791 134.903 122.112 136.099 122.345 137.326 L 129.398 137.326 C 130.432 137.326 131.271 138.166 131.271 139.2 L 131.271 144.82 C 131.271 145.854 130.432 146.694 129.398 146.694 L 122.345 146.694 C 122.112 147.921 121.791 149.117 121.386 150.274 L 127.494 153.801 C 128.389 154.318 128.696 155.464 128.179 156.36 L 125.369 161.227 C 124.852 162.123 123.705 162.43 122.81 161.913 L 116.694 158.382 C 115.887 159.318 115.012 160.193 114.077 161 L 117.607 167.116 C 118.124 168.011 117.817 169.158 116.922 169.675 L 115.331 170.593 Z  M 100.024 126.992 L 108.901 152.278 C 111.383 149.573 112.899 145.967 112.899 142.01 C 112.899 134.413 107.311 128.11 100.024 126.992 Z  M 108.829 89.941 L 104.82 101.081 C 107.939 101.816 111.103 99.94 111.938 96.823 C 112.685 94.035 111.322 91.174 108.829 89.941 Z " fill="rgb(0,0,0)"/></g></g></svg>